<svg width="216" height="110" viewBox="0 0 216 110" fill="none" xmlns="http://www.w3.org/2000/svg">
<path d="M5.96484 7.85156V6.70312L2.37891 5.32031L2.06836 5.21484L2.37891 5.11523L5.96484 3.70898V2.56055L0.996094 4.77539V5.63086L5.96484 7.85156ZM78.3164 4.42969V3.48633H73.084V4.42969H78.3164ZM78.3164 6.86133V5.92383H73.084V6.86133H78.3164ZM83.1035 0.650391V0H82.1777V0.744141L82.1719 2.80664H82.9805L83.1035 0.650391ZM169.588 0.650391V0H168.662V0.744141L168.656 2.80664H169.465L169.588 0.650391ZM174.012 7.8457L179.186 5.625V4.76953L174.012 2.55469V3.67383L177.803 5.08008L178.154 5.19141L177.803 5.29102L174.012 6.7207V7.8457ZM34.793 27.8516V26.7031L31.207 25.3203L30.8965 25.2148L31.207 25.1152L34.793 23.709V22.5605L29.8242 24.7754V25.6309L34.793 27.8516ZM107.145 24.4297V23.4863H101.912V24.4297H107.145ZM107.145 26.8613V25.9238H101.912V26.8613H107.145ZM111.932 20.6504V20H111.006V20.7441L111 22.8066H111.809L111.932 20.6504ZM68.6895 60.6504V60H67.7637V60.7441L67.7578 62.8066H68.5664L68.6895 60.6504ZM73.1133 67.8457L78.2871 65.625V64.7695L73.1133 62.5547V63.6738L76.9043 65.0801L77.2559 65.1914L76.9043 65.291L73.1133 66.7207V67.8457ZM34.793 87.8516V86.7031L31.207 85.3203L30.8965 85.2148L31.207 85.1152L34.793 83.709V82.5605L29.8242 84.7754V85.6309L34.793 87.8516ZM38.4844 89.7324L42.041 80.4688H41.0742L37.5117 89.7324H38.4844ZM65.9062 87.8457L71.0801 85.625V84.7695L65.9062 82.5547V83.6738L69.6973 85.0801L70.0488 85.1914L69.6973 85.291L65.9062 86.7207V87.8457ZM5.96484 107.852V106.703L2.37891 105.32L2.06836 105.215L2.37891 105.115L5.96484 103.709V102.561L0.996094 104.775V105.631L5.96484 107.852ZM9.65625 109.732L13.2129 100.469H12.2461L8.68359 109.732H9.65625ZM37.0781 107.846L42.252 105.625V104.77L37.0781 102.555V103.674L40.8691 105.08L41.2207 105.191L40.8691 105.291L37.0781 106.721V107.846Z" fill="black"/>
<path d="M8.02148 5.77734V5.90039C8.02148 6.35352 8.08203 6.77734 8.20312 7.17188C8.32422 7.5625 8.49414 7.90234 8.71289 8.19141C8.93164 8.48047 9.19531 8.70703 9.50391 8.87109C9.81641 9.03516 10.1641 9.11719 10.5469 9.11719C10.9375 9.11719 11.2793 9.05078 11.5723 8.91797C11.8652 8.78516 12.1172 8.58984 12.3281 8.33203L12.375 9H13.3711V0H12.2871V3.28711C12.0801 3.04492 11.834 2.86133 11.5488 2.73633C11.2676 2.60742 10.9375 2.54297 10.5586 2.54297C10.1719 2.54297 9.82227 2.62305 9.50977 2.7832C9.19727 2.94336 8.93164 3.16602 8.71289 3.45117C8.49023 3.73633 8.31836 4.07812 8.19727 4.47656C8.08008 4.87109 8.02148 5.30469 8.02148 5.77734ZM9.10547 5.90039V5.77734C9.10547 5.46875 9.13867 5.17578 9.20508 4.89844C9.27148 4.61719 9.375 4.36914 9.51562 4.1543C9.65234 3.94336 9.82812 3.77539 10.043 3.65039C10.2617 3.52539 10.5234 3.46289 10.8281 3.46289C11.1836 3.46289 11.4805 3.54688 11.7188 3.71484C11.957 3.87891 12.1465 4.08984 12.2871 4.34766V7.28906C12.1465 7.56641 11.957 7.78711 11.7188 7.95117C11.4805 8.11523 11.1797 8.19727 10.8164 8.19727C10.5156 8.19727 10.2578 8.13672 10.043 8.01562C9.82812 7.89062 9.65234 7.72266 9.51562 7.51172C9.375 7.30078 9.27148 7.05664 9.20508 6.7793C9.13867 6.50195 9.10547 6.20898 9.10547 5.90039ZM15.6035 2.66016V3.60352H17.7598V8.0625H15.6035V9H20.9121V8.0625H18.8438V2.66016H15.6035ZM17.6191 0.996094C17.6191 1.17188 17.6719 1.31836 17.7773 1.43555C17.8867 1.55273 18.0508 1.61133 18.2695 1.61133C18.4844 1.61133 18.6465 1.55273 18.7559 1.43555C18.8652 1.31836 18.9199 1.17188 18.9199 0.996094C18.9199 0.898438 18.9043 0.808594 18.873 0.726562C18.8418 0.644531 18.7949 0.576172 18.7324 0.521484C18.6816 0.470703 18.6172 0.431641 18.5391 0.404297C18.4609 0.373047 18.3711 0.357422 18.2695 0.357422C18.168 0.357422 18.0762 0.373047 17.9941 0.404297C17.916 0.431641 17.8516 0.470703 17.8008 0.521484C17.7383 0.580078 17.6914 0.650391 17.6602 0.732422C17.6328 0.814453 17.6191 0.902344 17.6191 0.996094ZM24.8027 9H25.6289L28.2129 2.66016H27.1055L25.3301 7.44141L25.2246 7.83398L25.125 7.44141L23.3086 2.66016H22.1953L24.8027 9ZM36.8496 25.7773V25.9004C36.8496 26.3535 36.9102 26.7773 37.0312 27.1719C37.1523 27.5625 37.3223 27.9023 37.541 28.1914C37.7598 28.4805 38.0234 28.707 38.332 28.8711C38.6445 29.0352 38.9922 29.1172 39.375 29.1172C39.7656 29.1172 40.1074 29.0508 40.4004 28.918C40.6934 28.7852 40.9453 28.5898 41.1562 28.332L41.2031 29H42.1992V20H41.1152V23.2871C40.9082 23.0449 40.6621 22.8613 40.377 22.7363C40.0957 22.6074 39.7656 22.543 39.3867 22.543C39 22.543 38.6504 22.623 38.3379 22.7832C38.0254 22.9434 37.7598 23.166 37.541 23.4512C37.3184 23.7363 37.1465 24.0781 37.0254 24.4766C36.9082 24.8711 36.8496 25.3047 36.8496 25.7773ZM37.9336 25.9004V25.7773C37.9336 25.4688 37.9668 25.1758 38.0332 24.8984C38.0996 24.6172 38.2031 24.3691 38.3438 24.1543C38.4805 23.9434 38.6562 23.7754 38.8711 23.6504C39.0898 23.5254 39.3516 23.4629 39.6562 23.4629C40.0117 23.4629 40.3086 23.5469 40.5469 23.7148C40.7852 23.8789 40.9746 24.0898 41.1152 24.3477V27.2891C40.9746 27.5664 40.7852 27.7871 40.5469 27.9512C40.3086 28.1152 40.0078 28.1973 39.6445 28.1973C39.3438 28.1973 39.0859 28.1367 38.8711 28.0156C38.6562 27.8906 38.4805 27.7227 38.3438 27.5117C38.2031 27.3008 38.0996 27.0566 38.0332 26.7793C37.9668 26.502 37.9336 26.209 37.9336 25.9004ZM44.4316 22.6602V23.6035H46.5879V28.0625H44.4316V29H49.7402V28.0625H47.6719V22.6602H44.4316ZM46.4473 20.9961C46.4473 21.1719 46.5 21.3184 46.6055 21.4355C46.7148 21.5527 46.8789 21.6113 47.0977 21.6113C47.3125 21.6113 47.4746 21.5527 47.584 21.4355C47.6934 21.3184 47.748 21.1719 47.748 20.9961C47.748 20.8984 47.7324 20.8086 47.7012 20.7266C47.6699 20.6445 47.623 20.5762 47.5605 20.5215C47.5098 20.4707 47.4453 20.4316 47.3672 20.4043C47.2891 20.373 47.1992 20.3574 47.0977 20.3574C46.9961 20.3574 46.9043 20.373 46.8223 20.4043C46.7441 20.4316 46.6797 20.4707 46.6289 20.5215C46.5664 20.5801 46.5195 20.6504 46.4883 20.7324C46.4609 20.8145 46.4473 20.9023 46.4473 20.9961ZM53.6309 29H54.457L57.041 22.6602H55.9336L54.1582 27.4414L54.0527 27.834L53.9531 27.4414L52.1367 22.6602H51.0234L53.6309 29ZM44.0566 85.7773V85.9004C44.0566 86.3535 44.1172 86.7773 44.2383 87.1719C44.3594 87.5625 44.5293 87.9023 44.748 88.1914C44.9668 88.4805 45.2305 88.707 45.5391 88.8711C45.8516 89.0352 46.1992 89.1172 46.582 89.1172C46.9727 89.1172 47.3145 89.0508 47.6074 88.918C47.9004 88.7852 48.1523 88.5898 48.3633 88.332L48.4102 89H49.4062V80H48.3223V83.2871C48.1152 83.0449 47.8691 82.8613 47.584 82.7363C47.3027 82.6074 46.9727 82.543 46.5938 82.543C46.207 82.543 45.8574 82.623 45.5449 82.7832C45.2324 82.9434 44.9668 83.166 44.748 83.4512C44.5254 83.7363 44.3535 84.0781 44.2324 84.4766C44.1152 84.8711 44.0566 85.3047 44.0566 85.7773ZM45.1406 85.9004V85.7773C45.1406 85.4688 45.1738 85.1758 45.2402 84.8984C45.3066 84.6172 45.4102 84.3691 45.5508 84.1543C45.6875 83.9434 45.8633 83.7754 46.0781 83.6504C46.2969 83.5254 46.5586 83.4629 46.8633 83.4629C47.2188 83.4629 47.5156 83.5469 47.7539 83.7148C47.9922 83.8789 48.1816 84.0898 48.3223 84.3477V87.2891C48.1816 87.5664 47.9922 87.7871 47.7539 87.9512C47.5156 88.1152 47.2148 88.1973 46.8516 88.1973C46.5508 88.1973 46.293 88.1367 46.0781 88.0156C45.8633 87.8906 45.6875 87.7227 45.5508 87.5117C45.4102 87.3008 45.3066 87.0566 45.2402 86.7793C45.1738 86.502 45.1406 86.209 45.1406 85.9004ZM51.6387 82.6602V83.6035H53.7949V88.0625H51.6387V89H56.9473V88.0625H54.8789V82.6602H51.6387ZM53.6543 80.9961C53.6543 81.1719 53.707 81.3184 53.8125 81.4355C53.9219 81.5527 54.0859 81.6113 54.3047 81.6113C54.5195 81.6113 54.6816 81.5527 54.791 81.4355C54.9004 81.3184 54.9551 81.1719 54.9551 80.9961C54.9551 80.8984 54.9395 80.8086 54.9082 80.7266C54.877 80.6445 54.8301 80.5762 54.7676 80.5215C54.7168 80.4707 54.6523 80.4316 54.5742 80.4043C54.4961 80.373 54.4062 80.3574 54.3047 80.3574C54.2031 80.3574 54.1113 80.373 54.0293 80.4043C53.9512 80.4316 53.8867 80.4707 53.8359 80.5215C53.7734 80.5801 53.7266 80.6504 53.6953 80.7324C53.668 80.8145 53.6543 80.9023 53.6543 80.9961ZM60.8379 89H61.6641L64.248 82.6602H63.1406L61.3652 87.4414L61.2598 87.834L61.1602 87.4414L59.3438 82.6602H58.2305L60.8379 89ZM15.2285 105.777V105.9C15.2285 106.354 15.2891 106.777 15.4102 107.172C15.5312 107.562 15.7012 107.902 15.9199 108.191C16.1387 108.48 16.4023 108.707 16.7109 108.871C17.0234 109.035 17.3711 109.117 17.7539 109.117C18.1445 109.117 18.4863 109.051 18.7793 108.918C19.0723 108.785 19.3242 108.59 19.5352 108.332L19.582 109H20.5781V100H19.4941V103.287C19.2871 103.045 19.041 102.861 18.7559 102.736C18.4746 102.607 18.1445 102.543 17.7656 102.543C17.3789 102.543 17.0293 102.623 16.7168 102.783C16.4043 102.943 16.1387 103.166 15.9199 103.451C15.6973 103.736 15.5254 104.078 15.4043 104.477C15.2871 104.871 15.2285 105.305 15.2285 105.777ZM16.3125 105.9V105.777C16.3125 105.469 16.3457 105.176 16.4121 104.898C16.4785 104.617 16.582 104.369 16.7227 104.154C16.8594 103.943 17.0352 103.775 17.25 103.65C17.4688 103.525 17.7305 103.463 18.0352 103.463C18.3906 103.463 18.6875 103.547 18.9258 103.715C19.1641 103.879 19.3535 104.09 19.4941 104.348V107.289C19.3535 107.566 19.1641 107.787 18.9258 107.951C18.6875 108.115 18.3867 108.197 18.0234 108.197C17.7227 108.197 17.4648 108.137 17.25 108.016C17.0352 107.891 16.8594 107.723 16.7227 107.512C16.582 107.301 16.4785 107.057 16.4121 106.779C16.3457 106.502 16.3125 106.209 16.3125 105.9ZM22.8105 102.66V103.604H24.9668V108.062H22.8105V109H28.1191V108.062H26.0508V102.66H22.8105ZM24.8262 100.996C24.8262 101.172 24.8789 101.318 24.9844 101.436C25.0938 101.553 25.2578 101.611 25.4766 101.611C25.6914 101.611 25.8535 101.553 25.9629 101.436C26.0723 101.318 26.127 101.172 26.127 100.996C26.127 100.898 26.1113 100.809 26.0801 100.727C26.0488 100.645 26.002 100.576 25.9395 100.521C25.8887 100.471 25.8242 100.432 25.7461 100.404C25.668 100.373 25.5781 100.357 25.4766 100.357C25.375 100.357 25.2832 100.373 25.2012 100.404C25.123 100.432 25.0586 100.471 25.0078 100.521C24.9453 100.58 24.8984 100.65 24.8672 100.732C24.8398 100.814 24.8262 100.902 24.8262 100.996ZM32.0098 109H32.8359L35.4199 102.66H34.3125L32.5371 107.441L32.4316 107.834L32.332 107.441L30.5156 102.66H29.4023L32.0098 109Z" fill="#FF0000"/>
<path d="M39.7559 8.23828C39.416 8.23828 39.1309 8.17188 38.9004 8.03906C38.6738 7.90234 38.4922 7.72461 38.3555 7.50586C38.2148 7.29102 38.1133 7.04883 38.0508 6.7793C37.9922 6.50586 37.9629 6.23047 37.9629 5.95312V5.70703C37.9629 5.43359 37.9922 5.16211 38.0508 4.89258C38.1133 4.62305 38.2148 4.37891 38.3555 4.16016C38.4961 3.94531 38.6797 3.77148 38.9062 3.63867C39.1367 3.50195 39.4199 3.43359 39.7559 3.43359C39.9746 3.43359 40.1777 3.4707 40.3652 3.54492C40.5566 3.61914 40.7207 3.7207 40.8574 3.84961C40.9941 3.97852 41.1016 4.12891 41.1797 4.30078C41.2617 4.46875 41.3047 4.64844 41.3086 4.83984H42.334C42.334 4.51953 42.2695 4.21875 42.1406 3.9375C42.0117 3.65625 41.834 3.41211 41.6074 3.20508C41.377 3.00195 41.1035 2.8418 40.7871 2.72461C40.4746 2.60352 40.1309 2.54297 39.7559 2.54297C39.2754 2.54297 38.8555 2.62891 38.4961 2.80078C38.1367 2.97266 37.8379 3.20312 37.5996 3.49219C37.3574 3.78516 37.1758 4.12305 37.0547 4.50586C36.9336 4.88867 36.873 5.28906 36.873 5.70703V5.95312C36.873 6.375 36.9336 6.77734 37.0547 7.16016C37.1758 7.53906 37.3574 7.87305 37.5996 8.16211C37.8379 8.45508 38.1367 8.6875 38.4961 8.85938C38.8555 9.03125 39.2754 9.11719 39.7559 9.11719C40.0918 9.11719 40.4141 9.06055 40.7227 8.94727C41.0312 8.83008 41.3047 8.67383 41.543 8.47852C41.7812 8.28711 41.9707 8.06445 42.1113 7.81055C42.2559 7.55273 42.3301 7.2832 42.334 7.00195H41.3086C41.3047 7.17773 41.2578 7.3418 41.168 7.49414C41.082 7.64258 40.9668 7.77148 40.8223 7.88086C40.6777 7.99414 40.5117 8.08203 40.3242 8.14453C40.1406 8.20703 39.9512 8.23828 39.7559 8.23828ZM44.4316 0V0.943359H46.5879V8.0625H44.4316V9H49.7402V8.0625H47.6719V0H44.4316ZM55.6348 9H56.7656V8.90625C56.6953 8.73047 56.6406 8.52539 56.6016 8.29102C56.5625 8.05273 56.543 7.82812 56.543 7.61719V4.66992C56.543 4.31445 56.4785 4.00391 56.3496 3.73828C56.2207 3.47266 56.0449 3.25 55.8223 3.07031C55.5957 2.89453 55.3281 2.76367 55.0195 2.67773C54.7109 2.58789 54.377 2.54297 54.0176 2.54297C53.623 2.54297 53.2695 2.59766 52.957 2.70703C52.6484 2.81641 52.3867 2.95898 52.1719 3.13477C51.9531 3.31445 51.7852 3.51562 51.668 3.73828C51.5547 3.96094 51.4961 4.1875 51.4922 4.41797H52.582C52.582 4.28516 52.6133 4.1582 52.6758 4.03711C52.7422 3.91211 52.834 3.80469 52.9512 3.71484C53.0684 3.625 53.2109 3.55273 53.3789 3.49805C53.5508 3.44336 53.7441 3.41602 53.959 3.41602C54.1895 3.41602 54.3965 3.44531 54.5801 3.50391C54.7676 3.5625 54.9258 3.64453 55.0547 3.75C55.1836 3.85938 55.2832 3.99023 55.3535 4.14258C55.4238 4.29492 55.459 4.4668 55.459 4.6582V5.15625H54.2754C53.834 5.15625 53.4336 5.19922 53.0742 5.28516C52.7188 5.37109 52.4141 5.5 52.1602 5.67188C51.9062 5.84766 51.709 6.06641 51.5684 6.32812C51.4316 6.58984 51.3633 6.89453 51.3633 7.24219C51.3633 7.50781 51.4141 7.75586 51.5156 7.98633C51.6211 8.21289 51.7695 8.4082 51.9609 8.57227C52.1484 8.74023 52.377 8.87305 52.6465 8.9707C52.9199 9.06836 53.2246 9.11719 53.5605 9.11719C53.7676 9.11719 53.9629 9.0957 54.1465 9.05273C54.3301 9.00977 54.5039 8.95117 54.668 8.87695C54.8281 8.80273 54.9746 8.7168 55.1074 8.61914C55.2441 8.52148 55.3672 8.41797 55.4766 8.30859C55.4883 8.44141 55.5059 8.57031 55.5293 8.69531C55.5566 8.81641 55.5918 8.91797 55.6348 9ZM53.7188 8.17383C53.5078 8.17383 53.3223 8.14648 53.1621 8.0918C53.002 8.03711 52.8691 7.96094 52.7637 7.86328C52.6582 7.76953 52.5781 7.65625 52.5234 7.52344C52.4727 7.39062 52.4473 7.24609 52.4473 7.08984C52.4473 6.92578 52.4766 6.7793 52.5352 6.65039C52.5977 6.52148 52.6875 6.41016 52.8047 6.31641C52.9688 6.18359 53.1895 6.08594 53.4668 6.02344C53.748 5.95703 54.0762 5.92383 54.4512 5.92383H55.459V7.20703C55.3965 7.33203 55.3105 7.45312 55.2012 7.57031C55.0918 7.68359 54.9629 7.78516 54.8145 7.875C54.6621 7.96484 54.4941 8.03711 54.3105 8.0918C54.127 8.14648 53.9297 8.17383 53.7188 8.17383ZM62.8887 7.31836C62.8887 7.41992 62.8691 7.51562 62.8301 7.60547C62.791 7.69531 62.7344 7.77734 62.6602 7.85156C62.5391 7.97266 62.3711 8.06836 62.1562 8.13867C61.9414 8.20508 61.6895 8.23828 61.4004 8.23828C61.2168 8.23828 61.0312 8.21875 60.8438 8.17969C60.6562 8.14062 60.4863 8.07422 60.334 7.98047C60.1777 7.88672 60.0469 7.76367 59.9414 7.61133C59.8398 7.45898 59.7812 7.27148 59.7656 7.04883H58.6816C58.6816 7.31836 58.7422 7.57812 58.8633 7.82812C58.9883 8.07812 59.168 8.29688 59.4023 8.48438C59.6328 8.67578 59.916 8.83008 60.252 8.94727C60.5879 9.06055 60.9707 9.11719 61.4004 9.11719C61.7754 9.11719 62.1211 9.07227 62.4375 8.98242C62.7539 8.89258 63.0254 8.76562 63.252 8.60156C63.4785 8.4375 63.6543 8.24023 63.7793 8.00977C63.9082 7.7793 63.9727 7.52344 63.9727 7.24219C63.9727 6.98047 63.916 6.75 63.8027 6.55078C63.6934 6.35156 63.5332 6.17578 63.3223 6.02344C63.1113 5.875 62.8516 5.74805 62.543 5.64258C62.2344 5.5332 61.8848 5.4375 61.4941 5.35547C61.1973 5.29688 60.9512 5.23633 60.7559 5.17383C60.5645 5.11133 60.4121 5.04102 60.2988 4.96289C60.1816 4.88477 60.0996 4.79688 60.0527 4.69922C60.0059 4.60156 59.9824 4.49023 59.9824 4.36523C59.9824 4.24414 60.0117 4.12695 60.0703 4.01367C60.1289 3.90039 60.2168 3.80078 60.334 3.71484C60.4473 3.62891 60.5898 3.56055 60.7617 3.50977C60.9375 3.45898 61.1406 3.43359 61.3711 3.43359C61.5938 3.43359 61.793 3.46484 61.9688 3.52734C62.1484 3.58984 62.3008 3.67188 62.4258 3.77344C62.5508 3.875 62.6484 3.99219 62.7188 4.125C62.7891 4.25391 62.8242 4.38672 62.8242 4.52344H63.9082C63.9082 4.24609 63.8477 3.98828 63.7266 3.75C63.6094 3.50781 63.4414 3.29688 63.2227 3.11719C63.0039 2.9375 62.7383 2.79688 62.4258 2.69531C62.1133 2.59375 61.7617 2.54297 61.3711 2.54297C61.0078 2.54297 60.6738 2.5918 60.3691 2.68945C60.0684 2.78711 59.8086 2.91992 59.5898 3.08789C59.3711 3.25586 59.2012 3.45312 59.0801 3.67969C58.959 3.90234 58.8984 4.14258 58.8984 4.40039C58.8984 4.66211 58.957 4.89258 59.0742 5.0918C59.1914 5.28711 59.3574 5.45703 59.5723 5.60156C59.7832 5.75 60.0371 5.87695 60.334 5.98242C60.6348 6.08789 60.9668 6.17773 61.3301 6.25195C61.627 6.31055 61.875 6.37695 62.0742 6.45117C62.2734 6.52148 62.4336 6.59961 62.5547 6.68555C62.6758 6.77148 62.7617 6.86719 62.8125 6.97266C62.8633 7.07422 62.8887 7.18945 62.8887 7.31836ZM70.0957 7.31836C70.0957 7.41992 70.0762 7.51562 70.0371 7.60547C69.998 7.69531 69.9414 7.77734 69.8672 7.85156C69.7461 7.97266 69.5781 8.06836 69.3633 8.13867C69.1484 8.20508 68.8965 8.23828 68.6074 8.23828C68.4238 8.23828 68.2383 8.21875 68.0508 8.17969C67.8633 8.14062 67.6934 8.07422 67.541 7.98047C67.3848 7.88672 67.2539 7.76367 67.1484 7.61133C67.0469 7.45898 66.9883 7.27148 66.9727 7.04883H65.8887C65.8887 7.31836 65.9492 7.57812 66.0703 7.82812C66.1953 8.07812 66.375 8.29688 66.6094 8.48438C66.8398 8.67578 67.123 8.83008 67.459 8.94727C67.7949 9.06055 68.1777 9.11719 68.6074 9.11719C68.9824 9.11719 69.3281 9.07227 69.6445 8.98242C69.9609 8.89258 70.2324 8.76562 70.459 8.60156C70.6855 8.4375 70.8613 8.24023 70.9863 8.00977C71.1152 7.7793 71.1797 7.52344 71.1797 7.24219C71.1797 6.98047 71.123 6.75 71.0098 6.55078C70.9004 6.35156 70.7402 6.17578 70.5293 6.02344C70.3184 5.875 70.0586 5.74805 69.75 5.64258C69.4414 5.5332 69.0918 5.4375 68.7012 5.35547C68.4043 5.29688 68.1582 5.23633 67.9629 5.17383C67.7715 5.11133 67.6191 5.04102 67.5059 4.96289C67.3887 4.88477 67.3066 4.79688 67.2598 4.69922C67.2129 4.60156 67.1895 4.49023 67.1895 4.36523C67.1895 4.24414 67.2188 4.12695 67.2773 4.01367C67.3359 3.90039 67.4238 3.80078 67.541 3.71484C67.6543 3.62891 67.7969 3.56055 67.9688 3.50977C68.1445 3.45898 68.3477 3.43359 68.5781 3.43359C68.8008 3.43359 69 3.46484 69.1758 3.52734C69.3555 3.58984 69.5078 3.67188 69.6328 3.77344C69.7578 3.875 69.8555 3.99219 69.9258 4.125C69.9961 4.25391 70.0312 4.38672 70.0312 4.52344H71.1152C71.1152 4.24609 71.0547 3.98828 70.9336 3.75C70.8164 3.50781 70.6484 3.29688 70.4297 3.11719C70.2109 2.9375 69.9453 2.79688 69.6328 2.69531C69.3203 2.59375 68.9688 2.54297 68.5781 2.54297C68.2148 2.54297 67.8809 2.5918 67.5762 2.68945C67.2754 2.78711 67.0156 2.91992 66.7969 3.08789C66.5781 3.25586 66.4082 3.45312 66.2871 3.67969C66.166 3.90234 66.1055 4.14258 66.1055 4.40039C66.1055 4.66211 66.1641 4.89258 66.2812 5.0918C66.3984 5.28711 66.5645 5.45703 66.7793 5.60156C66.9902 5.75 67.2441 5.87695 67.541 5.98242C67.8418 6.08789 68.1738 6.17773 68.5371 6.25195C68.834 6.31055 69.082 6.37695 69.2812 6.45117C69.4805 6.52148 69.6406 6.59961 69.7617 6.68555C69.8828 6.77148 69.9688 6.86719 70.0195 6.97266C70.0703 7.07422 70.0957 7.18945 70.0957 7.31836ZM70.0957 27.3184C70.0957 27.4199 70.0762 27.5156 70.0371 27.6055C69.998 27.6953 69.9414 27.7773 69.8672 27.8516C69.7461 27.9727 69.5781 28.0684 69.3633 28.1387C69.1484 28.2051 68.8965 28.2383 68.6074 28.2383C68.4238 28.2383 68.2383 28.2188 68.0508 28.1797C67.8633 28.1406 67.6934 28.0742 67.541 27.9805C67.3848 27.8867 67.2539 27.7637 67.1484 27.6113C67.0469 27.459 66.9883 27.2715 66.9727 27.0488H65.8887C65.8887 27.3184 65.9492 27.5781 66.0703 27.8281C66.1953 28.0781 66.375 28.2969 66.6094 28.4844C66.8398 28.6758 67.123 28.8301 67.459 28.9473C67.7949 29.0605 68.1777 29.1172 68.6074 29.1172C68.9824 29.1172 69.3281 29.0723 69.6445 28.9824C69.9609 28.8926 70.2324 28.7656 70.459 28.6016C70.6855 28.4375 70.8613 28.2402 70.9863 28.0098C71.1152 27.7793 71.1797 27.5234 71.1797 27.2422C71.1797 26.9805 71.123 26.75 71.0098 26.5508C70.9004 26.3516 70.7402 26.1758 70.5293 26.0234C70.3184 25.875 70.0586 25.748 69.75 25.6426C69.4414 25.5332 69.0918 25.4375 68.7012 25.3555C68.4043 25.2969 68.1582 25.2363 67.9629 25.1738C67.7715 25.1113 67.6191 25.041 67.5059 24.9629C67.3887 24.8848 67.3066 24.7969 67.2598 24.6992C67.2129 24.6016 67.1895 24.4902 67.1895 24.3652C67.1895 24.2441 67.2188 24.127 67.2773 24.0137C67.3359 23.9004 67.4238 23.8008 67.541 23.7148C67.6543 23.6289 67.7969 23.5605 67.9688 23.5098C68.1445 23.459 68.3477 23.4336 68.5781 23.4336C68.8008 23.4336 69 23.4648 69.1758 23.5273C69.3555 23.5898 69.5078 23.6719 69.6328 23.7734C69.7578 23.875 69.8555 23.9922 69.9258 24.125C69.9961 24.2539 70.0312 24.3867 70.0312 24.5234H71.1152C71.1152 24.2461 71.0547 23.9883 70.9336 23.75C70.8164 23.5078 70.6484 23.2969 70.4297 23.1172C70.2109 22.9375 69.9453 22.7969 69.6328 22.6953C69.3203 22.5938 68.9688 22.543 68.5781 22.543C68.2148 22.543 67.8809 22.5918 67.5762 22.6895C67.2754 22.7871 67.0156 22.9199 66.7969 23.0879C66.5781 23.2559 66.4082 23.4531 66.2871 23.6797C66.166 23.9023 66.1055 24.1426 66.1055 24.4004C66.1055 24.6621 66.1641 24.8926 66.2812 25.0918C66.3984 25.2871 66.5645 25.457 66.7793 25.6016C66.9902 25.75 67.2441 25.877 67.541 25.9824C67.8418 26.0879 68.1738 26.1777 68.5371 26.252C68.834 26.3105 69.082 26.377 69.2812 26.4512C69.4805 26.5215 69.6406 26.5996 69.7617 26.6855C69.8828 26.7715 69.9688 26.8672 70.0195 26.9727C70.0703 27.0742 70.0957 27.1895 70.0957 27.3184ZM75.6562 21.125H74.5664V22.6602H72.9023V23.498H74.5664V26.9434C74.5664 27.334 74.6172 27.668 74.7188 27.9453C74.8242 28.2188 74.9668 28.4414 75.1465 28.6133C75.3262 28.7891 75.5371 28.918 75.7793 29C76.0254 29.0781 76.2891 29.1172 76.5703 29.1172C76.7383 29.1172 76.9062 29.1094 77.0742 29.0938C77.2461 29.0781 77.4082 29.0547 77.5605 29.0234C77.7129 28.9961 77.8535 28.9629 77.9824 28.9238C78.1113 28.8809 78.2207 28.832 78.3105 28.7773L78.1582 28.0098C78.0918 28.0254 78.0059 28.0449 77.9004 28.0684C77.7988 28.0879 77.6895 28.1074 77.5723 28.127C77.4512 28.1465 77.3281 28.1641 77.2031 28.1797C77.0781 28.1914 76.957 28.1973 76.8398 28.1973C76.6797 28.1973 76.5273 28.1777 76.3828 28.1387C76.2422 28.0996 76.1172 28.0312 76.0078 27.9336C75.8984 27.8398 75.8125 27.7129 75.75 27.5527C75.6875 27.3926 75.6562 27.1895 75.6562 26.9434V23.498H78.0703V22.6602H75.6562V21.125ZM80.8066 31.5605C81.0918 31.5605 81.3438 31.5078 81.5625 31.4023C81.7812 31.2969 81.9727 31.166 82.1367 31.0098C82.3008 30.8535 82.4395 30.6836 82.5527 30.5C82.6699 30.3164 82.7656 30.1426 82.8398 29.9785L86.0566 22.6602H84.8438L83.209 26.7734L82.9102 27.5176L82.6289 26.75L80.8887 22.6602H79.6758L82.4062 28.7012L81.9727 29.5449C81.9336 29.623 81.8789 29.7227 81.8086 29.8438C81.7422 29.9648 81.6621 30.082 81.5684 30.1953C81.4707 30.3086 81.3594 30.4062 81.2344 30.4883C81.1133 30.5703 80.9785 30.6113 80.8301 30.6113C80.7754 30.6113 80.6992 30.6074 80.6016 30.5996C80.5078 30.5957 80.4121 30.5898 80.3145 30.582L80.1387 31.4668C80.209 31.4824 80.3125 31.502 80.4492 31.5254C80.5859 31.5488 80.7051 31.5605 80.8066 31.5605ZM87.6738 20V20.9434H89.8301V28.0625H87.6738V29H92.9824V28.0625H90.9141V20H87.6738ZM97.5117 29.1172C98.1289 29.1172 98.6465 28.9941 99.0645 28.748C99.4863 28.498 99.8027 28.2129 100.014 27.8926L99.3516 27.377C99.1523 27.6348 98.9023 27.8418 98.6016 27.998C98.3008 28.1543 97.957 28.2324 97.5703 28.2324C97.2773 28.2324 97.0098 28.1777 96.7676 28.0684C96.5254 27.959 96.3184 27.8086 96.1465 27.6172C95.9785 27.4375 95.8457 27.2305 95.748 26.9961C95.6543 26.7617 95.5938 26.4902 95.5664 26.1816V26.1406H100.096V25.6543C100.096 25.2129 100.039 24.8027 99.9258 24.4238C99.8164 24.0449 99.6484 23.7148 99.4219 23.4336C99.1953 23.1562 98.9102 22.9395 98.5664 22.7832C98.2266 22.623 97.8281 22.543 97.3711 22.543C97.0078 22.543 96.6523 22.6172 96.3047 22.7656C95.9609 22.9141 95.6543 23.127 95.3848 23.4043C95.1113 23.6855 94.8926 24.0293 94.7285 24.4355C94.5645 24.8379 94.4824 25.2949 94.4824 25.8066V26.0527C94.4824 26.4941 94.5566 26.9023 94.7051 27.2773C94.8535 27.6523 95.0605 27.9766 95.3262 28.25C95.5918 28.5234 95.9102 28.7363 96.2812 28.8887C96.6562 29.041 97.0664 29.1172 97.5117 29.1172ZM97.3711 23.4336C97.6484 23.4336 97.8867 23.4844 98.0859 23.5859C98.2891 23.6875 98.457 23.8203 98.5898 23.9844C98.7227 24.1484 98.8262 24.3438 98.9004 24.5703C98.9746 24.793 99.0117 25.002 99.0117 25.1973V25.25H95.6016C95.6445 24.957 95.7188 24.6992 95.8242 24.4766C95.9336 24.25 96.0664 24.0586 96.2227 23.9023C96.3789 23.75 96.5547 23.6348 96.75 23.5566C96.9453 23.4746 97.1523 23.4336 97.3711 23.4336Z" fill="#A52A2A"/>
<path d="M87.3047 5.77734V5.90039C87.3047 6.35352 87.3633 6.77734 87.4805 7.17188C87.5977 7.5625 87.7656 7.90234 87.9844 8.19141C88.1992 8.48047 88.4629 8.70703 88.7754 8.87109C89.0879 9.03516 89.4375 9.11719 89.8242 9.11719C90.0547 9.11719 90.2695 9.0918 90.4688 9.04102C90.668 8.99414 90.8496 8.92578 91.0137 8.83594C91.1191 8.77734 91.2168 8.70898 91.3066 8.63086C91.4004 8.55273 91.4883 8.4668 91.5703 8.37305V8.91797C91.5703 9.19141 91.5312 9.43359 91.4531 9.64453C91.375 9.85547 91.2637 10.0312 91.1191 10.1719C90.9707 10.3164 90.793 10.4258 90.5859 10.5C90.3789 10.5742 90.1465 10.6113 89.8887 10.6113C89.7441 10.6113 89.5996 10.5957 89.4551 10.5645C89.3105 10.5371 89.166 10.4902 89.0215 10.4238C88.877 10.3574 88.7344 10.2676 88.5938 10.1543C88.4531 10.0449 88.3164 9.91016 88.1836 9.75L87.6211 10.4004C87.7656 10.6074 87.9375 10.7812 88.1367 10.9219C88.3398 11.0625 88.5508 11.1738 88.7695 11.2559C88.9844 11.3418 89.1973 11.4023 89.4082 11.4375C89.6191 11.4766 89.8066 11.4961 89.9707 11.4961C90.3691 11.4961 90.7324 11.4375 91.0605 11.3203C91.3887 11.2031 91.6719 11.0312 91.9102 10.8047C92.1445 10.5781 92.3262 10.3027 92.4551 9.97852C92.5879 9.6543 92.6543 9.2832 92.6543 8.86523V2.66016H91.6699L91.6172 3.35156C91.543 3.25781 91.4629 3.17188 91.377 3.09375C91.2949 3.01562 91.207 2.94727 91.1133 2.88867C90.9414 2.77539 90.748 2.68945 90.5332 2.63086C90.3223 2.57227 90.0898 2.54297 89.8359 2.54297C89.4414 2.54297 89.0879 2.62305 88.7754 2.7832C88.4629 2.94336 88.1973 3.16602 87.9785 3.45117C87.7598 3.73633 87.5918 4.07812 87.4746 4.47656C87.3613 4.87109 87.3047 5.30469 87.3047 5.77734ZM88.3887 5.90039V5.77734C88.3887 5.46875 88.4199 5.17578 88.4824 4.89844C88.5488 4.61719 88.6523 4.36914 88.793 4.1543C88.9297 3.94336 89.1055 3.77539 89.3203 3.65039C89.5391 3.52539 89.8008 3.46289 90.1055 3.46289C90.2852 3.46289 90.4492 3.48633 90.5977 3.5332C90.7461 3.57617 90.8809 3.63672 91.002 3.71484C91.123 3.79688 91.2305 3.89258 91.3242 4.00195C91.418 4.11133 91.5 4.23242 91.5703 4.36523V7.27148C91.5 7.4082 91.418 7.5332 91.3242 7.64648C91.2305 7.75977 91.125 7.85742 91.0078 7.93945C90.8867 8.02148 90.75 8.08594 90.5977 8.13281C90.4492 8.17578 90.2812 8.19727 90.0938 8.19727C89.793 8.19727 89.5352 8.13672 89.3203 8.01562C89.1055 7.89062 88.9297 7.72266 88.793 7.51172C88.6523 7.30078 88.5488 7.05664 88.4824 6.7793C88.4199 6.50195 88.3887 6.20898 88.3887 5.90039ZM94.4062 5.77148V5.90039C94.4062 6.35742 94.4727 6.78125 94.6055 7.17188C94.7383 7.5625 94.9297 7.90234 95.1797 8.19141C95.4258 8.48047 95.7266 8.70703 96.082 8.87109C96.4414 9.03516 96.8457 9.11719 97.2949 9.11719C97.7402 9.11719 98.1406 9.03516 98.4961 8.87109C98.8516 8.70703 99.1543 8.48047 99.4043 8.19141C99.6504 7.90234 99.8398 7.5625 99.9727 7.17188C100.105 6.78125 100.172 6.35742 100.172 5.90039V5.77148C100.172 5.31445 100.105 4.89062 99.9727 4.5C99.8398 4.10547 99.6504 3.76367 99.4043 3.47461C99.1543 3.18555 98.8496 2.95898 98.4902 2.79492C98.1348 2.62695 97.7324 2.54297 97.2832 2.54297C96.8379 2.54297 96.4375 2.62695 96.082 2.79492C95.7266 2.95898 95.4258 3.18555 95.1797 3.47461C94.9297 3.76367 94.7383 4.10547 94.6055 4.5C94.4727 4.89062 94.4062 5.31445 94.4062 5.77148ZM95.4902 5.90039V5.77148C95.4902 5.46289 95.5273 5.16797 95.6016 4.88672C95.6758 4.60156 95.7891 4.35156 95.9414 4.13672C96.0898 3.92188 96.2754 3.75195 96.498 3.62695C96.7207 3.49805 96.9824 3.43359 97.2832 3.43359C97.584 3.43359 97.8457 3.49805 98.0684 3.62695C98.2949 3.75195 98.4844 3.92188 98.6367 4.13672C98.7852 4.35156 98.8965 4.60156 98.9707 4.88672C99.0488 5.16797 99.0879 5.46289 99.0879 5.77148V5.90039C99.0879 6.21289 99.0508 6.51172 98.9766 6.79688C98.9023 7.07812 98.791 7.32617 98.6426 7.54102C98.4902 7.75586 98.3008 7.92578 98.0742 8.05078C97.8516 8.17578 97.5918 8.23828 97.2949 8.23828C96.9941 8.23828 96.7305 8.17578 96.5039 8.05078C96.2773 7.92578 96.0898 7.75586 95.9414 7.54102C95.7891 7.32617 95.6758 7.07812 95.6016 6.79688C95.5273 6.51172 95.4902 6.21289 95.4902 5.90039ZM102.088 0V0.943359H104.244V8.0625H102.088V9H107.396V8.0625H105.328V0H102.088ZM108.92 5.77734V5.90039C108.92 6.35352 108.98 6.77734 109.102 7.17188C109.223 7.5625 109.393 7.90234 109.611 8.19141C109.83 8.48047 110.094 8.70703 110.402 8.87109C110.715 9.03516 111.062 9.11719 111.445 9.11719C111.836 9.11719 112.178 9.05078 112.471 8.91797C112.764 8.78516 113.016 8.58984 113.227 8.33203L113.273 9H114.27V0H113.186V3.28711C112.979 3.04492 112.732 2.86133 112.447 2.73633C112.166 2.60742 111.836 2.54297 111.457 2.54297C111.07 2.54297 110.721 2.62305 110.408 2.7832C110.096 2.94336 109.83 3.16602 109.611 3.45117C109.389 3.73633 109.217 4.07812 109.096 4.47656C108.979 4.87109 108.92 5.30469 108.92 5.77734ZM110.004 5.90039V5.77734C110.004 5.46875 110.037 5.17578 110.104 4.89844C110.17 4.61719 110.273 4.36914 110.414 4.1543C110.551 3.94336 110.727 3.77539 110.941 3.65039C111.16 3.52539 111.422 3.46289 111.727 3.46289C112.082 3.46289 112.379 3.54688 112.617 3.71484C112.855 3.87891 113.045 4.08984 113.186 4.34766V7.28906C113.045 7.56641 112.855 7.78711 112.617 7.95117C112.379 8.11523 112.078 8.19727 111.715 8.19727C111.414 8.19727 111.156 8.13672 110.941 8.01562C110.727 7.89062 110.551 7.72266 110.414 7.51172C110.273 7.30078 110.17 7.05664 110.104 6.7793C110.037 6.50195 110.004 6.20898 110.004 5.90039ZM119.133 9.11719C119.75 9.11719 120.268 8.99414 120.686 8.74805C121.107 8.49805 121.424 8.21289 121.635 7.89258L120.973 7.37695C120.773 7.63477 120.523 7.8418 120.223 7.99805C119.922 8.1543 119.578 8.23242 119.191 8.23242C118.898 8.23242 118.631 8.17773 118.389 8.06836C118.146 7.95898 117.939 7.80859 117.768 7.61719C117.6 7.4375 117.467 7.23047 117.369 6.99609C117.275 6.76172 117.215 6.49023 117.188 6.18164V6.14062H121.717V5.6543C121.717 5.21289 121.66 4.80273 121.547 4.42383C121.438 4.04492 121.27 3.71484 121.043 3.43359C120.816 3.15625 120.531 2.93945 120.188 2.7832C119.848 2.62305 119.449 2.54297 118.992 2.54297C118.629 2.54297 118.273 2.61719 117.926 2.76562C117.582 2.91406 117.275 3.12695 117.006 3.4043C116.732 3.68555 116.514 4.0293 116.35 4.43555C116.186 4.83789 116.104 5.29492 116.104 5.80664V6.05273C116.104 6.49414 116.178 6.90234 116.326 7.27734C116.475 7.65234 116.682 7.97656 116.947 8.25C117.213 8.52344 117.531 8.73633 117.902 8.88867C118.277 9.04102 118.688 9.11719 119.133 9.11719ZM118.992 3.43359C119.27 3.43359 119.508 3.48438 119.707 3.58594C119.91 3.6875 120.078 3.82031 120.211 3.98438C120.344 4.14844 120.447 4.34375 120.521 4.57031C120.596 4.79297 120.633 5.00195 120.633 5.19727V5.25H117.223C117.266 4.95703 117.34 4.69922 117.445 4.47656C117.555 4.25 117.688 4.05859 117.844 3.90234C118 3.75 118.176 3.63477 118.371 3.55664C118.566 3.47461 118.773 3.43359 118.992 3.43359ZM123.539 9H124.623V4.45312C124.697 4.31641 124.783 4.19141 124.881 4.07812C124.982 3.96484 125.092 3.86523 125.209 3.7793C125.354 3.68164 125.512 3.60547 125.684 3.55078C125.855 3.49219 126.041 3.46289 126.24 3.46289C126.471 3.46289 126.674 3.49023 126.85 3.54492C127.029 3.59961 127.182 3.6875 127.307 3.80859C127.428 3.92969 127.52 4.08789 127.582 4.2832C127.645 4.47852 127.676 4.7168 127.676 4.99805V9H128.76V4.97461C128.76 4.55273 128.707 4.18945 128.602 3.88477C128.5 3.57617 128.354 3.32227 128.162 3.12305C127.971 2.92383 127.738 2.77734 127.465 2.68359C127.195 2.58984 126.895 2.54297 126.562 2.54297C126.316 2.54688 126.082 2.58398 125.859 2.6543C125.641 2.7207 125.438 2.81641 125.25 2.94141C125.125 3.02344 125.006 3.12109 124.893 3.23438C124.783 3.34375 124.682 3.46484 124.588 3.59766L124.512 2.66016H123.539V9ZM135.486 5.71289V4.82227H131.004V5.71289H135.486ZM137.754 5.77734V5.90039C137.754 6.35352 137.812 6.77734 137.93 7.17188C138.047 7.5625 138.215 7.90234 138.434 8.19141C138.648 8.48047 138.912 8.70703 139.225 8.87109C139.537 9.03516 139.887 9.11719 140.273 9.11719C140.504 9.11719 140.719 9.0918 140.918 9.04102C141.117 8.99414 141.299 8.92578 141.463 8.83594C141.568 8.77734 141.666 8.70898 141.756 8.63086C141.85 8.55273 141.938 8.4668 142.02 8.37305V8.91797C142.02 9.19141 141.98 9.43359 141.902 9.64453C141.824 9.85547 141.713 10.0312 141.568 10.1719C141.42 10.3164 141.242 10.4258 141.035 10.5C140.828 10.5742 140.596 10.6113 140.338 10.6113C140.193 10.6113 140.049 10.5957 139.904 10.5645C139.76 10.5371 139.615 10.4902 139.471 10.4238C139.326 10.3574 139.184 10.2676 139.043 10.1543C138.902 10.0449 138.766 9.91016 138.633 9.75L138.07 10.4004C138.215 10.6074 138.387 10.7812 138.586 10.9219C138.789 11.0625 139 11.1738 139.219 11.2559C139.434 11.3418 139.646 11.4023 139.857 11.4375C140.068 11.4766 140.256 11.4961 140.42 11.4961C140.818 11.4961 141.182 11.4375 141.51 11.3203C141.838 11.2031 142.121 11.0312 142.359 10.8047C142.594 10.5781 142.775 10.3027 142.904 9.97852C143.037 9.6543 143.104 9.2832 143.104 8.86523V2.66016H142.119L142.066 3.35156C141.992 3.25781 141.912 3.17188 141.826 3.09375C141.744 3.01562 141.656 2.94727 141.562 2.88867C141.391 2.77539 141.197 2.68945 140.982 2.63086C140.771 2.57227 140.539 2.54297 140.285 2.54297C139.891 2.54297 139.537 2.62305 139.225 2.7832C138.912 2.94336 138.646 3.16602 138.428 3.45117C138.209 3.73633 138.041 4.07812 137.924 4.47656C137.811 4.87109 137.754 5.30469 137.754 5.77734ZM138.838 5.90039V5.77734C138.838 5.46875 138.869 5.17578 138.932 4.89844C138.998 4.61719 139.102 4.36914 139.242 4.1543C139.379 3.94336 139.555 3.77539 139.77 3.65039C139.988 3.52539 140.25 3.46289 140.555 3.46289C140.734 3.46289 140.898 3.48633 141.047 3.5332C141.195 3.57617 141.33 3.63672 141.451 3.71484C141.572 3.79688 141.68 3.89258 141.773 4.00195C141.867 4.11133 141.949 4.23242 142.02 4.36523V7.27148C141.949 7.4082 141.867 7.5332 141.773 7.64648C141.68 7.75977 141.574 7.85742 141.457 7.93945C141.336 8.02148 141.199 8.08594 141.047 8.13281C140.898 8.17578 140.73 8.19727 140.543 8.19727C140.242 8.19727 139.984 8.13672 139.77 8.01562C139.555 7.89062 139.379 7.72266 139.242 7.51172C139.102 7.30078 138.998 7.05664 138.932 6.7793C138.869 6.50195 138.838 6.20898 138.838 5.90039ZM149.314 2.54297C148.854 2.54297 148.441 2.64453 148.078 2.84766C147.719 3.04688 147.41 3.32031 147.152 3.66797L147.146 3.50977L147.1 2.66016H146.068V9H147.158V4.93359C147.229 4.73828 147.316 4.5625 147.422 4.40625C147.531 4.24609 147.658 4.11133 147.803 4.00195C147.963 3.87695 148.15 3.7832 148.365 3.7207C148.58 3.6543 148.82 3.62109 149.086 3.62109C149.293 3.62109 149.49 3.63281 149.678 3.65625C149.869 3.67578 150.07 3.70898 150.281 3.75586L150.428 2.69531C150.318 2.64844 150.154 2.61133 149.936 2.58398C149.721 2.55664 149.514 2.54297 149.314 2.54297ZM152.537 2.66016V3.60352H154.693V8.0625H152.537V9H157.846V8.0625H155.777V2.66016H152.537ZM154.553 0.996094C154.553 1.17188 154.605 1.31836 154.711 1.43555C154.82 1.55273 154.984 1.61133 155.203 1.61133C155.418 1.61133 155.58 1.55273 155.689 1.43555C155.799 1.31836 155.854 1.17188 155.854 0.996094C155.854 0.898438 155.838 0.808594 155.807 0.726562C155.775 0.644531 155.729 0.576172 155.666 0.521484C155.615 0.470703 155.551 0.431641 155.473 0.404297C155.395 0.373047 155.305 0.357422 155.203 0.357422C155.102 0.357422 155.01 0.373047 154.928 0.404297C154.85 0.431641 154.785 0.470703 154.734 0.521484C154.672 0.580078 154.625 0.650391 154.594 0.732422C154.566 0.814453 154.553 0.902344 154.553 0.996094ZM159.369 5.77734V5.90039C159.369 6.35352 159.43 6.77734 159.551 7.17188C159.672 7.5625 159.842 7.90234 160.061 8.19141C160.279 8.48047 160.543 8.70703 160.852 8.87109C161.164 9.03516 161.512 9.11719 161.895 9.11719C162.285 9.11719 162.627 9.05078 162.92 8.91797C163.213 8.78516 163.465 8.58984 163.676 8.33203L163.723 9H164.719V0H163.635V3.28711C163.428 3.04492 163.182 2.86133 162.896 2.73633C162.615 2.60742 162.285 2.54297 161.906 2.54297C161.52 2.54297 161.17 2.62305 160.857 2.7832C160.545 2.94336 160.279 3.16602 160.061 3.45117C159.838 3.73633 159.666 4.07812 159.545 4.47656C159.428 4.87109 159.369 5.30469 159.369 5.77734ZM160.453 5.90039V5.77734C160.453 5.46875 160.486 5.17578 160.553 4.89844C160.619 4.61719 160.723 4.36914 160.863 4.1543C161 3.94336 161.176 3.77539 161.391 3.65039C161.609 3.52539 161.871 3.46289 162.176 3.46289C162.531 3.46289 162.828 3.54688 163.066 3.71484C163.305 3.87891 163.494 4.08984 163.635 4.34766V7.28906C163.494 7.56641 163.305 7.78711 163.066 7.95117C162.828 8.11523 162.527 8.19727 162.164 8.19727C161.863 8.19727 161.605 8.13672 161.391 8.01562C161.176 7.89062 161 7.72266 160.863 7.51172C160.723 7.30078 160.619 7.05664 160.553 6.7793C160.486 6.50195 160.453 6.20898 160.453 5.90039ZM116.133 25.7773V25.9004C116.133 26.3535 116.191 26.7773 116.309 27.1719C116.426 27.5625 116.594 27.9023 116.812 28.1914C117.027 28.4805 117.291 28.707 117.604 28.8711C117.916 29.0352 118.266 29.1172 118.652 29.1172C118.883 29.1172 119.098 29.0918 119.297 29.041C119.496 28.9941 119.678 28.9258 119.842 28.8359C119.947 28.7773 120.045 28.709 120.135 28.6309C120.229 28.5527 120.316 28.4668 120.398 28.373V28.918C120.398 29.1914 120.359 29.4336 120.281 29.6445C120.203 29.8555 120.092 30.0312 119.947 30.1719C119.799 30.3164 119.621 30.4258 119.414 30.5C119.207 30.5742 118.975 30.6113 118.717 30.6113C118.572 30.6113 118.428 30.5957 118.283 30.5645C118.139 30.5371 117.994 30.4902 117.85 30.4238C117.705 30.3574 117.562 30.2676 117.422 30.1543C117.281 30.0449 117.145 29.9102 117.012 29.75L116.449 30.4004C116.594 30.6074 116.766 30.7812 116.965 30.9219C117.168 31.0625 117.379 31.1738 117.598 31.2559C117.812 31.3418 118.025 31.4023 118.236 31.4375C118.447 31.4766 118.635 31.4961 118.799 31.4961C119.197 31.4961 119.561 31.4375 119.889 31.3203C120.217 31.2031 120.5 31.0312 120.738 30.8047C120.973 30.5781 121.154 30.3027 121.283 29.9785C121.416 29.6543 121.482 29.2832 121.482 28.8652V22.6602H120.498L120.445 23.3516C120.371 23.2578 120.291 23.1719 120.205 23.0938C120.123 23.0156 120.035 22.9473 119.941 22.8887C119.77 22.7754 119.576 22.6895 119.361 22.6309C119.15 22.5723 118.918 22.543 118.664 22.543C118.27 22.543 117.916 22.623 117.604 22.7832C117.291 22.9434 117.025 23.166 116.807 23.4512C116.588 23.7363 116.42 24.0781 116.303 24.4766C116.189 24.8711 116.133 25.3047 116.133 25.7773ZM117.217 25.9004V25.7773C117.217 25.4688 117.248 25.1758 117.311 24.8984C117.377 24.6172 117.48 24.3691 117.621 24.1543C117.758 23.9434 117.934 23.7754 118.148 23.6504C118.367 23.5254 118.629 23.4629 118.934 23.4629C119.113 23.4629 119.277 23.4863 119.426 23.5332C119.574 23.5762 119.709 23.6367 119.83 23.7148C119.951 23.7969 120.059 23.8926 120.152 24.002C120.246 24.1113 120.328 24.2324 120.398 24.3652V27.2715C120.328 27.4082 120.246 27.5332 120.152 27.6465C120.059 27.7598 119.953 27.8574 119.836 27.9395C119.715 28.0215 119.578 28.0859 119.426 28.1328C119.277 28.1758 119.109 28.1973 118.922 28.1973C118.621 28.1973 118.363 28.1367 118.148 28.0156C117.934 27.8906 117.758 27.7227 117.621 27.5117C117.48 27.3008 117.377 27.0566 117.311 26.7793C117.248 26.502 117.217 26.209 117.217 25.9004ZM127.693 22.543C127.232 22.543 126.82 22.6445 126.457 22.8477C126.098 23.0469 125.789 23.3203 125.531 23.668L125.525 23.5098L125.479 22.6602H124.447V29H125.537V24.9336C125.607 24.7383 125.695 24.5625 125.801 24.4062C125.91 24.2461 126.037 24.1113 126.182 24.002C126.342 23.877 126.529 23.7832 126.744 23.7207C126.959 23.6543 127.199 23.6211 127.465 23.6211C127.672 23.6211 127.869 23.6328 128.057 23.6562C128.248 23.6758 128.449 23.709 128.66 23.7559L128.807 22.6953C128.697 22.6484 128.533 22.6113 128.314 22.584C128.1 22.5566 127.893 22.543 127.693 22.543ZM130.916 22.6602V23.6035H133.072V28.0625H130.916V29H136.225V28.0625H134.156V22.6602H130.916ZM132.932 20.9961C132.932 21.1719 132.984 21.3184 133.09 21.4355C133.199 21.5527 133.363 21.6113 133.582 21.6113C133.797 21.6113 133.959 21.5527 134.068 21.4355C134.178 21.3184 134.232 21.1719 134.232 20.9961C134.232 20.8984 134.217 20.8086 134.186 20.7266C134.154 20.6445 134.107 20.5762 134.045 20.5215C133.994 20.4707 133.93 20.4316 133.852 20.4043C133.773 20.373 133.684 20.3574 133.582 20.3574C133.48 20.3574 133.389 20.373 133.307 20.4043C133.229 20.4316 133.164 20.4707 133.113 20.5215C133.051 20.5801 133.004 20.6504 132.973 20.7324C132.945 20.8145 132.932 20.9023 132.932 20.9961ZM137.748 25.7773V25.9004C137.748 26.3535 137.809 26.7773 137.93 27.1719C138.051 27.5625 138.221 27.9023 138.439 28.1914C138.658 28.4805 138.922 28.707 139.23 28.8711C139.543 29.0352 139.891 29.1172 140.273 29.1172C140.664 29.1172 141.006 29.0508 141.299 28.918C141.592 28.7852 141.844 28.5898 142.055 28.332L142.102 29H143.098V20H142.014V23.2871C141.807 23.0449 141.561 22.8613 141.275 22.7363C140.994 22.6074 140.664 22.543 140.285 22.543C139.898 22.543 139.549 22.623 139.236 22.7832C138.924 22.9434 138.658 23.166 138.439 23.4512C138.217 23.7363 138.045 24.0781 137.924 24.4766C137.807 24.8711 137.748 25.3047 137.748 25.7773ZM138.832 25.9004V25.7773C138.832 25.4688 138.865 25.1758 138.932 24.8984C138.998 24.6172 139.102 24.3691 139.242 24.1543C139.379 23.9434 139.555 23.7754 139.77 23.6504C139.988 23.5254 140.25 23.4629 140.555 23.4629C140.91 23.4629 141.207 23.5469 141.445 23.7148C141.684 23.8789 141.873 24.0898 142.014 24.3477V27.2891C141.873 27.5664 141.684 27.7871 141.445 27.9512C141.207 28.1152 140.906 28.1973 140.543 28.1973C140.242 28.1973 139.984 28.1367 139.77 28.0156C139.555 27.8906 139.379 27.7227 139.242 27.5117C139.102 27.3008 138.998 27.0566 138.932 26.7793C138.865 26.502 138.832 26.209 138.832 25.9004ZM149.9 25.7129V24.8223H145.418V25.7129H149.9ZM156.533 29H157.664V28.9062C157.594 28.7305 157.539 28.5254 157.5 28.291C157.461 28.0527 157.441 27.8281 157.441 27.6172V24.6699C157.441 24.3145 157.377 24.0039 157.248 23.7383C157.119 23.4727 156.943 23.25 156.721 23.0703C156.494 22.8945 156.227 22.7637 155.918 22.6777C155.609 22.5879 155.275 22.543 154.916 22.543C154.521 22.543 154.168 22.5977 153.855 22.707C153.547 22.8164 153.285 22.959 153.07 23.1348C152.852 23.3145 152.684 23.5156 152.566 23.7383C152.453 23.9609 152.395 24.1875 152.391 24.418H153.48C153.48 24.2852 153.512 24.1582 153.574 24.0371C153.641 23.9121 153.732 23.8047 153.85 23.7148C153.967 23.625 154.109 23.5527 154.277 23.498C154.449 23.4434 154.643 23.416 154.857 23.416C155.088 23.416 155.295 23.4453 155.479 23.5039C155.666 23.5625 155.824 23.6445 155.953 23.75C156.082 23.8594 156.182 23.9902 156.252 24.1426C156.322 24.2949 156.357 24.4668 156.357 24.6582V25.1562H155.174C154.732 25.1562 154.332 25.1992 153.973 25.2852C153.617 25.3711 153.312 25.5 153.059 25.6719C152.805 25.8477 152.607 26.0664 152.467 26.3281C152.33 26.5898 152.262 26.8945 152.262 27.2422C152.262 27.5078 152.312 27.7559 152.414 27.9863C152.52 28.2129 152.668 28.4082 152.859 28.5723C153.047 28.7402 153.275 28.873 153.545 28.9707C153.818 29.0684 154.123 29.1172 154.459 29.1172C154.666 29.1172 154.861 29.0957 155.045 29.0527C155.229 29.0098 155.402 28.9512 155.566 28.877C155.727 28.8027 155.873 28.7168 156.006 28.6191C156.143 28.5215 156.266 28.418 156.375 28.3086C156.387 28.4414 156.404 28.5703 156.428 28.6953C156.455 28.8164 156.49 28.918 156.533 29ZM154.617 28.1738C154.406 28.1738 154.221 28.1465 154.061 28.0918C153.9 28.0371 153.768 27.9609 153.662 27.8633C153.557 27.7695 153.477 27.6562 153.422 27.5234C153.371 27.3906 153.346 27.2461 153.346 27.0898C153.346 26.9258 153.375 26.7793 153.434 26.6504C153.496 26.5215 153.586 26.4102 153.703 26.3164C153.867 26.1836 154.088 26.0859 154.365 26.0234C154.646 25.957 154.975 25.9238 155.35 25.9238H156.357V27.207C156.295 27.332 156.209 27.4531 156.1 27.5703C155.99 27.6836 155.861 27.7852 155.713 27.875C155.561 27.9648 155.393 28.0371 155.209 28.0918C155.025 28.1465 154.828 28.1738 154.617 28.1738ZM163.729 22.543C163.268 22.543 162.855 22.6445 162.492 22.8477C162.133 23.0469 161.824 23.3203 161.566 23.668L161.561 23.5098L161.514 22.6602H160.482V29H161.572V24.9336C161.643 24.7383 161.73 24.5625 161.836 24.4062C161.945 24.2461 162.072 24.1113 162.217 24.002C162.377 23.877 162.564 23.7832 162.779 23.7207C162.994 23.6543 163.234 23.6211 163.5 23.6211C163.707 23.6211 163.904 23.6328 164.092 23.6562C164.283 23.6758 164.484 23.709 164.695 23.7559L164.842 22.6953C164.732 22.6484 164.568 22.6113 164.35 22.584C164.135 22.5566 163.928 22.543 163.729 22.543ZM169.582 29.1172C170.199 29.1172 170.717 28.9941 171.135 28.748C171.557 28.498 171.873 28.2129 172.084 27.8926L171.422 27.377C171.223 27.6348 170.973 27.8418 170.672 27.998C170.371 28.1543 170.027 28.2324 169.641 28.2324C169.348 28.2324 169.08 28.1777 168.838 28.0684C168.596 27.959 168.389 27.8086 168.217 27.6172C168.049 27.4375 167.916 27.2305 167.818 26.9961C167.725 26.7617 167.664 26.4902 167.637 26.1816V26.1406H172.166V25.6543C172.166 25.2129 172.109 24.8027 171.996 24.4238C171.887 24.0449 171.719 23.7148 171.492 23.4336C171.266 23.1562 170.98 22.9395 170.637 22.7832C170.297 22.623 169.898 22.543 169.441 22.543C169.078 22.543 168.723 22.6172 168.375 22.7656C168.031 22.9141 167.725 23.127 167.455 23.4043C167.182 23.6855 166.963 24.0293 166.799 24.4355C166.635 24.8379 166.553 25.2949 166.553 25.8066V26.0527C166.553 26.4941 166.627 26.9023 166.775 27.2773C166.924 27.6523 167.131 27.9766 167.396 28.25C167.662 28.5234 167.98 28.7363 168.352 28.8887C168.727 29.041 169.137 29.1172 169.582 29.1172ZM169.441 23.4336C169.719 23.4336 169.957 23.4844 170.156 23.5859C170.359 23.6875 170.527 23.8203 170.66 23.9844C170.793 24.1484 170.896 24.3438 170.971 24.5703C171.045 24.793 171.082 25.002 171.082 25.1973V25.25H167.672C167.715 24.957 167.789 24.6992 167.895 24.4766C168.004 24.25 168.137 24.0586 168.293 23.9023C168.449 23.75 168.625 23.6348 168.82 23.5566C169.016 23.4746 169.223 23.4336 169.441 23.4336ZM178.154 29H179.285V28.9062C179.215 28.7305 179.16 28.5254 179.121 28.291C179.082 28.0527 179.062 27.8281 179.062 27.6172V24.6699C179.062 24.3145 178.998 24.0039 178.869 23.7383C178.74 23.4727 178.564 23.25 178.342 23.0703C178.115 22.8945 177.848 22.7637 177.539 22.6777C177.23 22.5879 176.896 22.543 176.537 22.543C176.143 22.543 175.789 22.5977 175.477 22.707C175.168 22.8164 174.906 22.959 174.691 23.1348C174.473 23.3145 174.305 23.5156 174.188 23.7383C174.074 23.9609 174.016 24.1875 174.012 24.418H175.102C175.102 24.2852 175.133 24.1582 175.195 24.0371C175.262 23.9121 175.354 23.8047 175.471 23.7148C175.588 23.625 175.73 23.5527 175.898 23.498C176.07 23.4434 176.264 23.416 176.479 23.416C176.709 23.416 176.916 23.4453 177.1 23.5039C177.287 23.5625 177.445 23.6445 177.574 23.75C177.703 23.8594 177.803 23.9902 177.873 24.1426C177.943 24.2949 177.979 24.4668 177.979 24.6582V25.1562H176.795C176.354 25.1562 175.953 25.1992 175.594 25.2852C175.238 25.3711 174.934 25.5 174.68 25.6719C174.426 25.8477 174.229 26.0664 174.088 26.3281C173.951 26.5898 173.883 26.8945 173.883 27.2422C173.883 27.5078 173.934 27.7559 174.035 27.9863C174.141 28.2129 174.289 28.4082 174.48 28.5723C174.668 28.7402 174.896 28.873 175.166 28.9707C175.439 29.0684 175.744 29.1172 176.08 29.1172C176.287 29.1172 176.482 29.0957 176.666 29.0527C176.85 29.0098 177.023 28.9512 177.188 28.877C177.348 28.8027 177.494 28.7168 177.627 28.6191C177.764 28.5215 177.887 28.418 177.996 28.3086C178.008 28.4414 178.025 28.5703 178.049 28.6953C178.076 28.8164 178.111 28.918 178.154 29ZM176.238 28.1738C176.027 28.1738 175.842 28.1465 175.682 28.0918C175.521 28.0371 175.389 27.9609 175.283 27.8633C175.178 27.7695 175.098 27.6562 175.043 27.5234C174.992 27.3906 174.967 27.2461 174.967 27.0898C174.967 26.9258 174.996 26.7793 175.055 26.6504C175.117 26.5215 175.207 26.4102 175.324 26.3164C175.488 26.1836 175.709 26.0859 175.986 26.0234C176.268 25.957 176.596 25.9238 176.971 25.9238H177.979V27.207C177.916 27.332 177.83 27.4531 177.721 27.5703C177.611 27.6836 177.482 27.7852 177.334 27.875C177.182 27.9648 177.014 28.0371 176.83 28.0918C176.646 28.1465 176.449 28.1738 176.238 28.1738ZM183.375 28.2969C183.375 28.5234 183.445 28.7168 183.586 28.877C183.73 29.0332 183.943 29.1113 184.225 29.1113C184.502 29.1113 184.715 29.0332 184.863 28.877C185.012 28.7207 185.086 28.5273 185.086 28.2969C185.086 28.0625 185.012 27.8652 184.863 27.7051C184.719 27.541 184.506 27.459 184.225 27.459C183.939 27.459 183.727 27.541 183.586 27.7051C183.445 27.8691 183.375 28.0664 183.375 28.2969ZM183.375 23.1641C183.375 23.3906 183.445 23.584 183.586 23.7441C183.73 23.9004 183.943 23.9785 184.225 23.9785C184.502 23.9785 184.715 23.9004 184.863 23.7441C185.012 23.5879 185.086 23.3945 185.086 23.1641C185.086 22.9297 185.012 22.7324 184.863 22.5723C184.719 22.4082 184.506 22.3262 184.225 22.3262C183.939 22.3262 183.727 22.4082 183.586 22.5723C183.445 22.7363 183.375 22.9336 183.375 23.1641ZM47.7773 49V40.4688H47.6895L44.4609 41.7109V42.7012L46.6934 41.8516V49H47.7773ZM54.9844 49V40.4688H54.8965L51.668 41.7109V42.7012L53.9004 41.8516V49H54.9844ZM67.3125 49.7324L70.8691 40.4688H69.9023L66.3398 49.7324H67.3125ZM91.0195 49V40.4688H90.9316L87.7031 41.7109V42.7012L89.9355 41.8516V49H91.0195ZM103.348 49.7324L106.904 40.4688H105.938L102.375 49.7324H103.348ZM120.545 47.3184C120.545 47.4199 120.525 47.5156 120.486 47.6055C120.447 47.6953 120.391 47.7773 120.316 47.8516C120.195 47.9727 120.027 48.0684 119.812 48.1387C119.598 48.2051 119.346 48.2383 119.057 48.2383C118.873 48.2383 118.688 48.2188 118.5 48.1797C118.312 48.1406 118.143 48.0742 117.99 47.9805C117.834 47.8867 117.703 47.7637 117.598 47.6113C117.496 47.459 117.438 47.2715 117.422 47.0488H116.338C116.338 47.3184 116.398 47.5781 116.52 47.8281C116.645 48.0781 116.824 48.2969 117.059 48.4844C117.289 48.6758 117.572 48.8301 117.908 48.9473C118.244 49.0605 118.627 49.1172 119.057 49.1172C119.432 49.1172 119.777 49.0723 120.094 48.9824C120.41 48.8926 120.682 48.7656 120.908 48.6016C121.135 48.4375 121.311 48.2402 121.436 48.0098C121.564 47.7793 121.629 47.5234 121.629 47.2422C121.629 46.9805 121.572 46.75 121.459 46.5508C121.35 46.3516 121.189 46.1758 120.979 46.0234C120.768 45.875 120.508 45.748 120.199 45.6426C119.891 45.5332 119.541 45.4375 119.15 45.3555C118.854 45.2969 118.607 45.2363 118.412 45.1738C118.221 45.1113 118.068 45.041 117.955 44.9629C117.838 44.8848 117.756 44.7969 117.709 44.6992C117.662 44.6016 117.639 44.4902 117.639 44.3652C117.639 44.2441 117.668 44.127 117.727 44.0137C117.785 43.9004 117.873 43.8008 117.99 43.7148C118.104 43.6289 118.246 43.5605 118.418 43.5098C118.594 43.459 118.797 43.4336 119.027 43.4336C119.25 43.4336 119.449 43.4648 119.625 43.5273C119.805 43.5898 119.957 43.6719 120.082 43.7734C120.207 43.875 120.305 43.9922 120.375 44.125C120.445 44.2539 120.48 44.3867 120.48 44.5234H121.564C121.564 44.2461 121.504 43.9883 121.383 43.75C121.266 43.5078 121.098 43.2969 120.879 43.1172C120.66 42.9375 120.395 42.7969 120.082 42.6953C119.77 42.5938 119.418 42.543 119.027 42.543C118.664 42.543 118.33 42.5918 118.025 42.6895C117.725 42.7871 117.465 42.9199 117.246 43.0879C117.027 43.2559 116.857 43.4531 116.736 43.6797C116.615 43.9023 116.555 44.1426 116.555 44.4004C116.555 44.6621 116.613 44.8926 116.73 45.0918C116.848 45.2871 117.014 45.457 117.229 45.6016C117.439 45.75 117.693 45.877 117.99 45.9824C118.291 46.0879 118.623 46.1777 118.986 46.252C119.283 46.3105 119.531 46.377 119.73 46.4512C119.93 46.5215 120.09 46.5996 120.211 46.6855C120.332 46.7715 120.418 46.8672 120.469 46.9727C120.52 47.0742 120.545 47.1895 120.545 47.3184ZM123.533 51.4375H124.617V48.3906C124.695 48.4766 124.779 48.5566 124.869 48.6309C124.959 48.7012 125.055 48.7656 125.156 48.8242C125.324 48.918 125.512 48.9902 125.719 49.041C125.93 49.0918 126.156 49.1172 126.398 49.1172C126.797 49.1172 127.15 49.0352 127.459 48.8711C127.771 48.707 128.033 48.4805 128.244 48.1914C128.455 47.9023 128.615 47.5625 128.725 47.1719C128.834 46.7773 128.889 46.3535 128.889 45.9004V45.7773C128.889 45.3047 128.834 44.8711 128.725 44.4766C128.615 44.0781 128.455 43.7363 128.244 43.4512C128.033 43.166 127.771 42.9434 127.459 42.7832C127.146 42.623 126.787 42.543 126.381 42.543C126.15 42.543 125.934 42.5684 125.73 42.6191C125.531 42.666 125.35 42.7363 125.186 42.8301C125.068 42.8926 124.959 42.9688 124.857 43.0586C124.756 43.1445 124.662 43.2422 124.576 43.3516L124.523 42.6602H123.533V51.4375ZM127.805 45.7773V45.9004C127.805 46.209 127.77 46.5039 127.699 46.7852C127.633 47.0664 127.529 47.3145 127.389 47.5293C127.248 47.7441 127.068 47.916 126.85 48.0449C126.631 48.1699 126.371 48.2324 126.07 48.2324C125.883 48.2324 125.711 48.209 125.555 48.1621C125.402 48.1152 125.264 48.0508 125.139 47.9688C125.029 47.8984 124.932 47.8125 124.846 47.7109C124.76 47.6094 124.684 47.5 124.617 47.3828V44.3301C124.691 44.1973 124.777 44.0762 124.875 43.9668C124.973 43.8574 125.084 43.7656 125.209 43.6914C125.322 43.6172 125.449 43.5605 125.59 43.5215C125.734 43.4824 125.891 43.4629 126.059 43.4629C126.363 43.4629 126.625 43.5254 126.844 43.6504C127.062 43.7754 127.244 43.9434 127.389 44.1543C127.529 44.3691 127.633 44.6172 127.699 44.8984C127.77 45.1758 127.805 45.4688 127.805 45.7773ZM134.912 49H136.043V48.9062C135.973 48.7305 135.918 48.5254 135.879 48.291C135.84 48.0527 135.82 47.8281 135.82 47.6172V44.6699C135.82 44.3145 135.756 44.0039 135.627 43.7383C135.498 43.4727 135.322 43.25 135.1 43.0703C134.873 42.8945 134.605 42.7637 134.297 42.6777C133.988 42.5879 133.654 42.543 133.295 42.543C132.9 42.543 132.547 42.5977 132.234 42.707C131.926 42.8164 131.664 42.959 131.449 43.1348C131.23 43.3145 131.062 43.5156 130.945 43.7383C130.832 43.9609 130.773 44.1875 130.77 44.418H131.859C131.859 44.2852 131.891 44.1582 131.953 44.0371C132.02 43.9121 132.111 43.8047 132.229 43.7148C132.346 43.625 132.488 43.5527 132.656 43.498C132.828 43.4434 133.021 43.416 133.236 43.416C133.467 43.416 133.674 43.4453 133.857 43.5039C134.045 43.5625 134.203 43.6445 134.332 43.75C134.461 43.8594 134.561 43.9902 134.631 44.1426C134.701 44.2949 134.736 44.4668 134.736 44.6582V45.1562H133.553C133.111 45.1562 132.711 45.1992 132.352 45.2852C131.996 45.3711 131.691 45.5 131.438 45.6719C131.184 45.8477 130.986 46.0664 130.846 46.3281C130.709 46.5898 130.641 46.8945 130.641 47.2422C130.641 47.5078 130.691 47.7559 130.793 47.9863C130.898 48.2129 131.047 48.4082 131.238 48.5723C131.426 48.7402 131.654 48.873 131.924 48.9707C132.197 49.0684 132.502 49.1172 132.838 49.1172C133.045 49.1172 133.24 49.0957 133.424 49.0527C133.607 49.0098 133.781 48.9512 133.945 48.877C134.105 48.8027 134.252 48.7168 134.385 48.6191C134.521 48.5215 134.645 48.418 134.754 48.3086C134.766 48.4414 134.783 48.5703 134.807 48.6953C134.834 48.8164 134.869 48.918 134.912 49ZM132.996 48.1738C132.785 48.1738 132.6 48.1465 132.439 48.0918C132.279 48.0371 132.146 47.9609 132.041 47.8633C131.936 47.7695 131.855 47.6562 131.801 47.5234C131.75 47.3906 131.725 47.2461 131.725 47.0898C131.725 46.9258 131.754 46.7793 131.812 46.6504C131.875 46.5215 131.965 46.4102 132.082 46.3164C132.246 46.1836 132.467 46.0859 132.744 46.0234C133.025 45.957 133.354 45.9238 133.729 45.9238H134.736V47.207C134.674 47.332 134.588 47.4531 134.479 47.5703C134.369 47.6836 134.24 47.7852 134.092 47.875C133.939 47.9648 133.771 48.0371 133.588 48.0918C133.404 48.1465 133.207 48.1738 132.996 48.1738ZM137.953 49H139.037V44.4531C139.111 44.3164 139.197 44.1914 139.295 44.0781C139.396 43.9648 139.506 43.8652 139.623 43.7793C139.768 43.6816 139.926 43.6055 140.098 43.5508C140.27 43.4922 140.455 43.4629 140.654 43.4629C140.885 43.4629 141.088 43.4902 141.264 43.5449C141.443 43.5996 141.596 43.6875 141.721 43.8086C141.842 43.9297 141.934 44.0879 141.996 44.2832C142.059 44.4785 142.09 44.7168 142.09 44.998V49H143.174V44.9746C143.174 44.5527 143.121 44.1895 143.016 43.8848C142.914 43.5762 142.768 43.3223 142.576 43.123C142.385 42.9238 142.152 42.7773 141.879 42.6836C141.609 42.5898 141.309 42.543 140.977 42.543C140.73 42.5469 140.496 42.584 140.273 42.6543C140.055 42.7207 139.852 42.8164 139.664 42.9414C139.539 43.0234 139.42 43.1211 139.307 43.2344C139.197 43.3438 139.096 43.4648 139.002 43.5977L138.926 42.6602H137.953V49ZM155.883 49V40.4688H155.795L152.566 41.7109V42.7012L154.799 41.8516V49H155.883ZM164.93 45.7363V43.7383C164.93 43.1953 164.867 42.7148 164.742 42.2969C164.617 41.875 164.438 41.5195 164.203 41.2305C163.965 40.9414 163.674 40.7227 163.33 40.5742C162.99 40.4219 162.602 40.3457 162.164 40.3457C161.73 40.3457 161.342 40.4219 160.998 40.5742C160.658 40.7227 160.371 40.9414 160.137 41.2305C159.898 41.5195 159.717 41.875 159.592 42.2969C159.467 42.7148 159.404 43.1953 159.404 43.7383V45.7363C159.404 46.2793 159.467 46.7617 159.592 47.1836C159.717 47.6016 159.898 47.9531 160.137 48.2383C160.375 48.5312 160.666 48.752 161.01 48.9004C161.354 49.0449 161.742 49.1172 162.176 49.1172C162.613 49.1172 163.002 49.043 163.342 48.8945C163.682 48.7461 163.969 48.5273 164.203 48.2383C164.438 47.9531 164.617 47.6016 164.742 47.1836C164.867 46.7617 164.93 46.2793 164.93 45.7363ZM160.494 45.5195C160.494 45.418 160.494 45.3184 160.494 45.2207C160.494 45.123 160.494 45.0254 160.494 44.9277V43.498C160.494 43.0996 160.533 42.75 160.611 42.4492C160.693 42.1445 160.816 41.8965 160.98 41.7051C161.117 41.5527 161.283 41.4375 161.479 41.3594C161.678 41.2773 161.906 41.2363 162.164 41.2363C162.418 41.2363 162.641 41.2734 162.832 41.3477C163.027 41.4219 163.191 41.5332 163.324 41.6816C163.461 41.8262 163.568 42.0078 163.646 42.2266C163.729 42.4414 163.785 42.6895 163.816 42.9707L160.494 45.5195ZM163.84 45.9648C163.84 46.3828 163.797 46.7461 163.711 47.0547C163.629 47.3633 163.498 47.6133 163.318 47.8047C163.186 47.9453 163.023 48.0527 162.832 48.127C162.641 48.2012 162.422 48.2383 162.176 48.2383C161.941 48.2383 161.73 48.2051 161.543 48.1387C161.355 48.0684 161.195 47.9668 161.062 47.834C160.918 47.6934 160.801 47.5156 160.711 47.3008C160.621 47.082 160.559 46.8301 160.523 46.5449L163.84 44.0078C163.84 44.1172 163.84 44.2559 163.84 44.4238C163.84 44.5879 163.84 44.6992 163.84 44.7578V45.9648ZM175.418 49.7324L178.975 40.4688H178.008L174.445 49.7324H175.418ZM192.615 47.3184C192.615 47.4199 192.596 47.5156 192.557 47.6055C192.518 47.6953 192.461 47.7773 192.387 47.8516C192.266 47.9727 192.098 48.0684 191.883 48.1387C191.668 48.2051 191.416 48.2383 191.127 48.2383C190.943 48.2383 190.758 48.2188 190.57 48.1797C190.383 48.1406 190.213 48.0742 190.061 47.9805C189.904 47.8867 189.773 47.7637 189.668 47.6113C189.566 47.459 189.508 47.2715 189.492 47.0488H188.408C188.408 47.3184 188.469 47.5781 188.59 47.8281C188.715 48.0781 188.895 48.2969 189.129 48.4844C189.359 48.6758 189.643 48.8301 189.979 48.9473C190.314 49.0605 190.697 49.1172 191.127 49.1172C191.502 49.1172 191.848 49.0723 192.164 48.9824C192.48 48.8926 192.752 48.7656 192.979 48.6016C193.205 48.4375 193.381 48.2402 193.506 48.0098C193.635 47.7793 193.699 47.5234 193.699 47.2422C193.699 46.9805 193.643 46.75 193.529 46.5508C193.42 46.3516 193.26 46.1758 193.049 46.0234C192.838 45.875 192.578 45.748 192.27 45.6426C191.961 45.5332 191.611 45.4375 191.221 45.3555C190.924 45.2969 190.678 45.2363 190.482 45.1738C190.291 45.1113 190.139 45.041 190.025 44.9629C189.908 44.8848 189.826 44.7969 189.779 44.6992C189.732 44.6016 189.709 44.4902 189.709 44.3652C189.709 44.2441 189.738 44.127 189.797 44.0137C189.855 43.9004 189.943 43.8008 190.061 43.7148C190.174 43.6289 190.316 43.5605 190.488 43.5098C190.664 43.459 190.867 43.4336 191.098 43.4336C191.32 43.4336 191.52 43.4648 191.695 43.5273C191.875 43.5898 192.027 43.6719 192.152 43.7734C192.277 43.875 192.375 43.9922 192.445 44.125C192.516 44.2539 192.551 44.3867 192.551 44.5234H193.635C193.635 44.2461 193.574 43.9883 193.453 43.75C193.336 43.5078 193.168 43.2969 192.949 43.1172C192.73 42.9375 192.465 42.7969 192.152 42.6953C191.84 42.5938 191.488 42.543 191.098 42.543C190.734 42.543 190.4 42.5918 190.096 42.6895C189.795 42.7871 189.535 42.9199 189.316 43.0879C189.098 43.2559 188.928 43.4531 188.807 43.6797C188.686 43.9023 188.625 44.1426 188.625 44.4004C188.625 44.6621 188.684 44.8926 188.801 45.0918C188.918 45.2871 189.084 45.457 189.299 45.6016C189.51 45.75 189.764 45.877 190.061 45.9824C190.361 46.0879 190.693 46.1777 191.057 46.252C191.354 46.3105 191.602 46.377 191.801 46.4512C192 46.5215 192.16 46.5996 192.281 46.6855C192.402 46.7715 192.488 46.8672 192.539 46.9727C192.59 47.0742 192.615 47.1895 192.615 47.3184ZM195.604 51.4375H196.688V48.3906C196.766 48.4766 196.85 48.5566 196.939 48.6309C197.029 48.7012 197.125 48.7656 197.227 48.8242C197.395 48.918 197.582 48.9902 197.789 49.041C198 49.0918 198.227 49.1172 198.469 49.1172C198.867 49.1172 199.221 49.0352 199.529 48.8711C199.842 48.707 200.104 48.4805 200.314 48.1914C200.525 47.9023 200.686 47.5625 200.795 47.1719C200.904 46.7773 200.959 46.3535 200.959 45.9004V45.7773C200.959 45.3047 200.904 44.8711 200.795 44.4766C200.686 44.0781 200.525 43.7363 200.314 43.4512C200.104 43.166 199.842 42.9434 199.529 42.7832C199.217 42.623 198.857 42.543 198.451 42.543C198.221 42.543 198.004 42.5684 197.801 42.6191C197.602 42.666 197.42 42.7363 197.256 42.8301C197.139 42.8926 197.029 42.9688 196.928 43.0586C196.826 43.1445 196.732 43.2422 196.646 43.3516L196.594 42.6602H195.604V51.4375ZM199.875 45.7773V45.9004C199.875 46.209 199.84 46.5039 199.77 46.7852C199.703 47.0664 199.6 47.3145 199.459 47.5293C199.318 47.7441 199.139 47.916 198.92 48.0449C198.701 48.1699 198.441 48.2324 198.141 48.2324C197.953 48.2324 197.781 48.209 197.625 48.1621C197.473 48.1152 197.334 48.0508 197.209 47.9688C197.1 47.8984 197.002 47.8125 196.916 47.7109C196.83 47.6094 196.754 47.5 196.688 47.3828V44.3301C196.762 44.1973 196.848 44.0762 196.945 43.9668C197.043 43.8574 197.154 43.7656 197.279 43.6914C197.393 43.6172 197.52 43.5605 197.66 43.5215C197.805 43.4824 197.961 43.4629 198.129 43.4629C198.434 43.4629 198.695 43.5254 198.914 43.6504C199.133 43.7754 199.314 43.9434 199.459 44.1543C199.6 44.3691 199.703 44.6172 199.77 44.8984C199.84 45.1758 199.875 45.4688 199.875 45.7773ZM206.982 49H208.113V48.9062C208.043 48.7305 207.988 48.5254 207.949 48.291C207.91 48.0527 207.891 47.8281 207.891 47.6172V44.6699C207.891 44.3145 207.826 44.0039 207.697 43.7383C207.568 43.4727 207.393 43.25 207.17 43.0703C206.943 42.8945 206.676 42.7637 206.367 42.6777C206.059 42.5879 205.725 42.543 205.365 42.543C204.971 42.543 204.617 42.5977 204.305 42.707C203.996 42.8164 203.734 42.959 203.52 43.1348C203.301 43.3145 203.133 43.5156 203.016 43.7383C202.902 43.9609 202.844 44.1875 202.84 44.418H203.93C203.93 44.2852 203.961 44.1582 204.023 44.0371C204.09 43.9121 204.182 43.8047 204.299 43.7148C204.416 43.625 204.559 43.5527 204.727 43.498C204.898 43.4434 205.092 43.416 205.307 43.416C205.537 43.416 205.744 43.4453 205.928 43.5039C206.115 43.5625 206.273 43.6445 206.402 43.75C206.531 43.8594 206.631 43.9902 206.701 44.1426C206.771 44.2949 206.807 44.4668 206.807 44.6582V45.1562H205.623C205.182 45.1562 204.781 45.1992 204.422 45.2852C204.066 45.3711 203.762 45.5 203.508 45.6719C203.254 45.8477 203.057 46.0664 202.916 46.3281C202.779 46.5898 202.711 46.8945 202.711 47.2422C202.711 47.5078 202.762 47.7559 202.863 47.9863C202.969 48.2129 203.117 48.4082 203.309 48.5723C203.496 48.7402 203.725 48.873 203.994 48.9707C204.268 49.0684 204.572 49.1172 204.908 49.1172C205.115 49.1172 205.311 49.0957 205.494 49.0527C205.678 49.0098 205.852 48.9512 206.016 48.877C206.176 48.8027 206.322 48.7168 206.455 48.6191C206.592 48.5215 206.715 48.418 206.824 48.3086C206.836 48.4414 206.854 48.5703 206.877 48.6953C206.904 48.8164 206.939 48.918 206.982 49ZM205.066 48.1738C204.855 48.1738 204.67 48.1465 204.51 48.0918C204.35 48.0371 204.217 47.9609 204.111 47.8633C204.006 47.7695 203.926 47.6562 203.871 47.5234C203.82 47.3906 203.795 47.2461 203.795 47.0898C203.795 46.9258 203.824 46.7793 203.883 46.6504C203.945 46.5215 204.035 46.4102 204.152 46.3164C204.316 46.1836 204.537 46.0859 204.814 46.0234C205.096 45.957 205.424 45.9238 205.799 45.9238H206.807V47.207C206.744 47.332 206.658 47.4531 206.549 47.5703C206.439 47.6836 206.311 47.7852 206.162 47.875C206.01 47.9648 205.842 48.0371 205.658 48.0918C205.475 48.1465 205.277 48.1738 205.066 48.1738ZM210.023 49H211.107V44.4531C211.182 44.3164 211.268 44.1914 211.365 44.0781C211.467 43.9648 211.576 43.8652 211.693 43.7793C211.838 43.6816 211.996 43.6055 212.168 43.5508C212.34 43.4922 212.525 43.4629 212.725 43.4629C212.955 43.4629 213.158 43.4902 213.334 43.5449C213.514 43.5996 213.666 43.6875 213.791 43.8086C213.912 43.9297 214.004 44.0879 214.066 44.2832C214.129 44.4785 214.16 44.7168 214.16 44.998V49H215.244V44.9746C215.244 44.5527 215.191 44.1895 215.086 43.8848C214.984 43.5762 214.838 43.3223 214.646 43.123C214.455 42.9238 214.223 42.7773 213.949 42.6836C213.68 42.5898 213.379 42.543 213.047 42.543C212.801 42.5469 212.566 42.584 212.344 42.6543C212.125 42.7207 211.922 42.8164 211.734 42.9414C211.609 43.0234 211.49 43.1211 211.377 43.2344C211.268 43.3438 211.166 43.4648 211.072 43.5977L210.996 42.6602H210.023V49ZM47.7773 69V60.4688H47.6895L44.4609 61.7109V62.7012L46.6934 61.8516V69H47.7773ZM56.7012 69V68.1152H52.418L54.709 65.6309C54.9238 65.3965 55.127 65.1621 55.3184 64.9277C55.5137 64.6895 55.6855 64.4492 55.834 64.207C55.9785 63.9648 56.0938 63.7207 56.1797 63.4746C56.2656 63.2246 56.3086 62.9727 56.3086 62.7188C56.3086 62.3789 56.248 62.0645 56.127 61.7754C56.0098 61.4863 55.8398 61.2363 55.6172 61.0254C55.3945 60.8145 55.1211 60.6504 54.7969 60.5332C54.4766 60.4121 54.1152 60.3516 53.7129 60.3516C53.2754 60.3516 52.8848 60.4219 52.541 60.5625C52.2012 60.7031 51.9141 60.8926 51.6797 61.1309C51.4414 61.3691 51.2598 61.6484 51.1348 61.9688C51.0098 62.2852 50.9473 62.623 50.9473 62.9824H52.0371C52.0371 62.7168 52.0703 62.4766 52.1367 62.2617C52.207 62.0469 52.3125 61.8633 52.4531 61.7109C52.5898 61.5625 52.7617 61.4473 52.9688 61.3652C53.1797 61.2832 53.4277 61.2422 53.7129 61.2422C53.9473 61.2422 54.1562 61.2832 54.3398 61.3652C54.5273 61.4434 54.6875 61.5508 54.8203 61.6875C54.9492 61.8242 55.0469 61.9863 55.1133 62.1738C55.1836 62.3574 55.2188 62.5547 55.2188 62.7656C55.2188 62.9375 55.1973 63.1055 55.1543 63.2695C55.1113 63.4297 55.0391 63.5996 54.9375 63.7793C54.8359 63.9629 54.7012 64.1621 54.5332 64.377C54.3652 64.5918 54.1562 64.8379 53.9062 65.1152L51.1113 68.2207V69H56.7012ZM60.8027 63.1641C60.8027 63.3906 60.873 63.584 61.0137 63.7441C61.1582 63.9004 61.3711 63.9785 61.6523 63.9785C61.9297 63.9785 62.1426 63.9004 62.291 63.7441C62.4395 63.5879 62.5137 63.3945 62.5137 63.1641C62.5137 62.9297 62.4395 62.7324 62.291 62.5723C62.1465 62.4082 61.9336 62.3262 61.6523 62.3262C61.3672 62.3262 61.1543 62.4082 61.0137 62.5723C60.873 62.7363 60.8027 62.9336 60.8027 63.1641ZM62.1973 68.748V67.7168H61.0195V68.7656C61.0195 69.0977 60.9805 69.418 60.9023 69.7266C60.8242 70.0352 60.6914 70.3262 60.5039 70.5996L61.1777 70.9688C61.4902 70.6914 61.7383 70.3496 61.9219 69.9434C62.1055 69.5371 62.1973 69.1387 62.1973 68.748Z" fill="#008000"/>
</svg>
