<svg width="12" height="110" viewBox="0 0 12 110" fill="none" xmlns="http://www.w3.org/2000/svg">
<path opacity="0.5" d="M4.53516 9V0.46875H4.44727L1.21875 1.71094V2.70117L3.45117 1.85156V9H4.53516ZM10.1133 8.29688C10.1133 8.52344 10.1836 8.7168 10.3242 8.87695C10.4688 9.0332 10.6816 9.11133 10.9629 9.11133C11.2402 9.11133 11.4531 9.0332 11.6016 8.87695C11.75 8.7207 11.8242 8.52734 11.8242 8.29688C11.8242 8.0625 11.75 7.86523 11.6016 7.70508C11.457 7.54102 11.2441 7.45898 10.9629 7.45898C10.6777 7.45898 10.4648 7.54102 10.3242 7.70508C10.1836 7.86914 10.1133 8.06641 10.1133 8.29688ZM6.25195 29V28.1152H1.96875L4.25977 25.6309C4.47461 25.3965 4.67773 25.1621 4.86914 24.9277C5.06445 24.6895 5.23633 24.4492 5.38477 24.207C5.5293 23.9648 5.64453 23.7207 5.73047 23.4746C5.81641 23.2246 5.85938 22.9727 5.85938 22.7188C5.85938 22.3789 5.79883 22.0645 5.67773 21.7754C5.56055 21.4863 5.39062 21.2363 5.16797 21.0254C4.94531 20.8145 4.67188 20.6504 4.34766 20.5332C4.02734 20.4121 3.66602 20.3516 3.26367 20.3516C2.82617 20.3516 2.43555 20.4219 2.0918 20.5625C1.75195 20.7031 1.46484 20.8926 1.23047 21.1309C0.992188 21.3691 0.810547 21.6484 0.685547 21.9688C0.560547 22.2852 0.498047 22.623 0.498047 22.9824H1.58789C1.58789 22.7168 1.62109 22.4766 1.6875 22.2617C1.75781 22.0469 1.86328 21.8633 2.00391 21.7109C2.14062 21.5625 2.3125 21.4473 2.51953 21.3652C2.73047 21.2832 2.97852 21.2422 3.26367 21.2422C3.49805 21.2422 3.70703 21.2832 3.89062 21.3652C4.07812 21.4434 4.23828 21.5508 4.37109 21.6875C4.5 21.8242 4.59766 21.9863 4.66406 22.1738C4.73438 22.3574 4.76953 22.5547 4.76953 22.7656C4.76953 22.9375 4.74805 23.1055 4.70508 23.2695C4.66211 23.4297 4.58984 23.5996 4.48828 23.7793C4.38672 23.9629 4.25195 24.1621 4.08398 24.377C3.91602 24.5918 3.70703 24.8379 3.45703 25.1152L0.662109 28.2207V29H6.25195ZM10.1133 28.2969C10.1133 28.5234 10.1836 28.7168 10.3242 28.877C10.4688 29.0332 10.6816 29.1113 10.9629 29.1113C11.2402 29.1113 11.4531 29.0332 11.6016 28.877C11.75 28.7207 11.8242 28.5273 11.8242 28.2969C11.8242 28.0625 11.75 27.8652 11.6016 27.7051C11.457 27.541 11.2441 27.459 10.9629 27.459C10.6777 27.459 10.4648 27.541 10.3242 27.7051C10.1836 27.8691 10.1133 28.0664 10.1133 28.2969ZM2.28516 44.2129V45.0918H3.05859C3.32812 45.0918 3.57422 45.123 3.79688 45.1855C4.02344 45.248 4.2168 45.3438 4.37695 45.4727C4.5332 45.6016 4.6543 45.7637 4.74023 45.959C4.83008 46.1504 4.875 46.3789 4.875 46.6445C4.875 46.9141 4.83594 47.1484 4.75781 47.3477C4.68359 47.543 4.57617 47.707 4.43555 47.8398C4.29492 47.9727 4.125 48.0723 3.92578 48.1387C3.72656 48.2012 3.50391 48.2324 3.25781 48.2324C3.01172 48.2324 2.78711 48.1973 2.58398 48.127C2.38477 48.0566 2.21484 47.957 2.07422 47.8281C1.93359 47.6992 1.82422 47.543 1.74609 47.3594C1.67188 47.1758 1.63477 46.9727 1.63477 46.75H0.550781C0.550781 47.125 0.621094 47.459 0.761719 47.752C0.90625 48.0449 1.09961 48.293 1.3418 48.4961C1.58398 48.6992 1.86914 48.8535 2.19727 48.959C2.5293 49.0645 2.88281 49.1172 3.25781 49.1172C3.64062 49.1172 3.99609 49.0625 4.32422 48.9531C4.65625 48.8398 4.94336 48.6758 5.18555 48.4609C5.42773 48.25 5.61719 47.9902 5.75391 47.6816C5.89062 47.373 5.95898 47.0195 5.95898 46.6211C5.95898 46.4258 5.93555 46.2285 5.88867 46.0293C5.8457 45.8301 5.76953 45.6406 5.66016 45.4609C5.54688 45.2812 5.39648 45.1191 5.20898 44.9746C5.02539 44.8301 4.79492 44.7129 4.51758 44.623C4.74805 44.5254 4.94531 44.4043 5.10938 44.2598C5.27734 44.1113 5.41406 43.9531 5.51953 43.7852C5.625 43.6211 5.70312 43.4512 5.75391 43.2754C5.80469 43.0996 5.83008 42.9297 5.83008 42.7656C5.83008 42.3711 5.76758 42.0234 5.64258 41.7227C5.51758 41.4219 5.3418 41.1699 5.11523 40.9668C4.88867 40.7637 4.61719 40.6113 4.30078 40.5098C3.98438 40.4043 3.63477 40.3516 3.25195 40.3516C2.85742 40.3516 2.49805 40.4141 2.17383 40.5391C1.85352 40.6602 1.57812 40.8262 1.34766 41.0371C1.11719 41.252 0.9375 41.5039 0.808594 41.793C0.683594 42.0781 0.621094 42.3828 0.621094 42.707H1.71094C1.71094 42.4844 1.74805 42.2832 1.82227 42.1035C1.89648 41.9238 2.00195 41.7695 2.13867 41.6406C2.27148 41.5117 2.43164 41.4141 2.61914 41.3477C2.81055 41.2773 3.02148 41.2422 3.25195 41.2422C3.49023 41.2422 3.70117 41.2734 3.88477 41.3359C4.07227 41.3945 4.22852 41.4844 4.35352 41.6055C4.48242 41.7305 4.58008 41.8887 4.64648 42.0801C4.71289 42.2676 4.74609 42.4883 4.74609 42.7422C4.74609 42.957 4.70898 43.1543 4.63477 43.334C4.56055 43.5137 4.45312 43.668 4.3125 43.7969C4.16797 43.9258 3.99023 44.0273 3.7793 44.1016C3.57227 44.1758 3.33203 44.2129 3.05859 44.2129H2.28516ZM10.1133 48.2969C10.1133 48.5234 10.1836 48.7168 10.3242 48.877C10.4688 49.0332 10.6816 49.1113 10.9629 49.1113C11.2402 49.1113 11.4531 49.0332 11.6016 48.877C11.75 48.7207 11.8242 48.5273 11.8242 48.2969C11.8242 48.0625 11.75 47.8652 11.6016 47.7051C11.457 47.541 11.2441 47.459 10.9629 47.459C10.6777 47.459 10.4648 47.541 10.3242 47.7051C10.1836 47.8691 10.1133 48.0664 10.1133 48.2969ZM5.41406 66.1348V60.4688H4.25977L0.439453 66.3809V67.0195H4.33008V69H5.41406V67.0195H6.60352V66.1348H5.41406ZM1.64062 66.1348L4.1543 62.2383L4.33008 61.9102V66.1348H1.64062ZM10.1133 68.2969C10.1133 68.5234 10.1836 68.7168 10.3242 68.877C10.4688 69.0332 10.6816 69.1113 10.9629 69.1113C11.2402 69.1113 11.4531 69.0332 11.6016 68.877C11.75 68.7207 11.8242 68.5273 11.8242 68.2969C11.8242 68.0625 11.75 67.8652 11.6016 67.7051C11.457 67.541 11.2441 67.459 10.9629 67.459C10.6777 67.459 10.4648 67.541 10.3242 67.7051C10.1836 67.8691 10.1133 68.0664 10.1133 68.2969ZM1.40625 84.7227L2.27344 84.9453C2.37109 84.8594 2.46484 84.7832 2.55469 84.7168C2.64844 84.6504 2.74805 84.5938 2.85352 84.5469C2.95898 84.5 3.07617 84.4648 3.20508 84.4414C3.33789 84.4141 3.49414 84.4004 3.67383 84.4004C3.94727 84.4004 4.18945 84.4492 4.40039 84.5469C4.61133 84.6445 4.78906 84.7773 4.93359 84.9453C5.07812 85.1172 5.1875 85.3184 5.26172 85.5488C5.33984 85.7793 5.37891 86.0273 5.37891 86.293C5.37891 86.5859 5.34375 86.8516 5.27344 87.0898C5.20703 87.3281 5.10742 87.5312 4.97461 87.6992C4.83789 87.8711 4.66992 88.0039 4.4707 88.0977C4.27148 88.1875 4.04297 88.2324 3.78516 88.2324C3.32812 88.2324 2.95312 88.1074 2.66016 87.8574C2.37109 87.6074 2.19336 87.2402 2.12695 86.7559H1.0957C1.13477 87.1504 1.23047 87.4961 1.38281 87.793C1.53906 88.0898 1.73828 88.3359 1.98047 88.5312C2.21875 88.7266 2.49219 88.873 2.80078 88.9707C3.10938 89.0684 3.4375 89.1172 3.78516 89.1172C4.23828 89.1172 4.63281 89.0469 4.96875 88.9062C5.30469 88.7617 5.58398 88.5625 5.80664 88.3086C6.02539 88.0586 6.18945 87.7598 6.29883 87.4121C6.4082 87.0645 6.46289 86.6875 6.46289 86.2812C6.46289 85.8516 6.4043 85.4609 6.28711 85.1094C6.16992 84.7578 6.00195 84.457 5.7832 84.207C5.56445 83.9609 5.29883 83.7695 4.98633 83.6328C4.67383 83.4961 4.32031 83.4277 3.92578 83.4277C3.61719 83.4277 3.3457 83.4648 3.11133 83.5391C2.87695 83.6133 2.67578 83.6992 2.50781 83.7969L2.74805 81.5234H6.21094V80.4688H1.83398L1.40625 84.7227ZM10.1133 88.2969C10.1133 88.5234 10.1836 88.7168 10.3242 88.877C10.4688 89.0332 10.6816 89.1113 10.9629 89.1113C11.2402 89.1113 11.4531 89.0332 11.6016 88.877C11.75 88.7207 11.8242 88.5273 11.8242 88.2969C11.8242 88.0625 11.75 87.8652 11.6016 87.7051C11.457 87.541 11.2441 87.459 10.9629 87.459C10.6777 87.459 10.4648 87.541 10.3242 87.7051C10.1836 87.8691 10.1133 88.0664 10.1133 88.2969ZM5.01562 100.463H4.92188C4.3125 100.463 3.76758 100.549 3.28711 100.721C2.80664 100.889 2.39844 101.141 2.0625 101.477C1.57422 101.965 1.24609 102.553 1.07812 103.24C0.910156 103.928 0.826172 104.627 0.826172 105.338V105.848C0.826172 106.262 0.888672 106.676 1.01367 107.09C1.13867 107.5 1.32812 107.859 1.58203 108.168C1.80859 108.449 2.08789 108.678 2.41992 108.854C2.75195 109.029 3.13672 109.117 3.57422 109.117C4.00781 109.117 4.38867 109.041 4.7168 108.889C5.04883 108.736 5.32617 108.527 5.54883 108.262C5.77148 108 5.9375 107.693 6.04688 107.342C6.16016 106.99 6.2168 106.615 6.2168 106.217C6.2168 105.869 6.16992 105.527 6.07617 105.191C5.98242 104.855 5.83594 104.555 5.63672 104.289C5.4375 104.023 5.18359 103.811 4.875 103.65C4.56641 103.486 4.19922 103.404 3.77344 103.404C3.57812 103.404 3.39062 103.428 3.21094 103.475C3.03516 103.518 2.87109 103.576 2.71875 103.65C2.5625 103.729 2.41797 103.82 2.28516 103.926C2.15234 104.027 2.03516 104.139 1.93359 104.26C1.95703 103.885 2.03125 103.52 2.15625 103.164C2.28516 102.809 2.47266 102.502 2.71875 102.244C2.95312 101.998 3.25 101.803 3.60938 101.658C3.96875 101.51 4.40625 101.436 4.92188 101.436H5.01562V100.463ZM3.59766 104.307C3.85938 104.307 4.08789 104.361 4.2832 104.471C4.47852 104.58 4.64062 104.727 4.76953 104.91C4.89844 105.094 4.99414 105.305 5.05664 105.543C5.11914 105.777 5.15039 106.02 5.15039 106.27C5.15039 106.551 5.11523 106.812 5.04492 107.055C4.97852 107.293 4.87891 107.498 4.74609 107.67C4.60938 107.842 4.44336 107.977 4.24805 108.074C4.05273 108.172 3.82812 108.221 3.57422 108.221C3.35547 108.221 3.14648 108.17 2.94727 108.068C2.74805 107.963 2.57227 107.811 2.41992 107.611C2.26758 107.412 2.14648 107.168 2.05664 106.879C1.9668 106.586 1.92188 106.252 1.92188 105.877V105.514C1.98828 105.334 2.07812 105.17 2.19141 105.021C2.30469 104.873 2.43555 104.746 2.58398 104.641C2.73242 104.535 2.89258 104.453 3.06445 104.395C3.23633 104.336 3.41406 104.307 3.59766 104.307ZM10.1133 108.297C10.1133 108.523 10.1836 108.717 10.3242 108.877C10.4688 109.033 10.6816 109.111 10.9629 109.111C11.2402 109.111 11.4531 109.033 11.6016 108.877C11.75 108.721 11.8242 108.527 11.8242 108.297C11.8242 108.062 11.75 107.865 11.6016 107.705C11.457 107.541 11.2441 107.459 10.9629 107.459C10.6777 107.459 10.4648 107.541 10.3242 107.705C10.1836 107.869 10.1133 108.066 10.1133 108.297Z" fill="black"/>
</svg>
